<svg class="rc-logo" viewBox="0 0 12 15">
  <script/>
  <path fill="#2a2d2d" d="M0 0h12v1H0z" class="rc-logo__primary"/>
  <path fill="#2a2d2d" d="M0 0h1v10H0zm11 0h1v10h-1z" class="rc-logo__primary"/>
  <path fill="#2a2d2d" d="M0 9h12v1H0z" class="rc-logo__primary"/>
  <path fill="#2a2d2d" d="M4 9h4v3H4z" class="rc-logo__primary"/>
  <path fill="#2a2d2d" d="M1 11h10v1H1z" class="rc-logo__primary"/>
  <path fill="#2a2d2d" d="M1 11h1v4H1zm9 0h1v4h-1z" class="rc-logo__primary"/>
  <path fill="#2a2d2d" d="M1 14h10v1H1z" class="rc-logo__primary"/>
  <path fill="#2a2d2d" d="M0 12h2v3H0zm10 0h2v3h-2z" class="rc-logo__primary"/>
  <path fill="#2a2d2d" d="M10 12h2v3h-2zm-9-1h2v2H1zm3 0h1v2H4zm2 0h1v2H6zm2 0h1v2H8z" class="rc-logo__primary"/>
  <path fill="#2a2d2d" d="M9 13h2v2H9zm-2 0h1v2H7zm-2 0h1v2H5zm-2 0h1v2H3z" class="rc-logo__primary"/>
  <path fill="#fff" d="M1 1h10v8H1zm1 12h1v1H2zm1-1h1v1H3zm1 1h1v1H4zm1-1h1v1H5zm1 1h1v1H6zm1-1h1v1H7zm1 1h1v1H8zm1-1h1v1H9z" class="rc-logo__secondary"/>
  <path fill="#2a2d2d" d="M2 2h8v6H2z" class="rc-logo__primary"/>
  <path fill="#3dc06c" d="M2 3h1v1H2z" class="rc-logo__accent rc-logo__pixel1"/>
  <path fill="#3dc06c" d="M4 3h1v1H4z" class="rc-logo__accent rc-logo__pixel2"/>
  <path fill="#3dc06c" d="M6 3h1v1H6z" class="rc-logo__accent rc-logo__pixel3"/>
  <path fill="#3dc06c" d="M3 5h2v1H3z" class="rc-logo__accent rc-logo__pixel4"/>
  <path fill="#3dc06c" d="M6 5h2v1H6z" class="rc-logo__accent rc-logo__pixel5"/>
</svg>
