<svg version="1.0" xmlns="http://www.w3.org/2000/svg" width="1236" height="1680" viewBox="0 0 927 1260"><path d="M856 2v7l2 6c0 2 3 1 3-1v-3c-2 1-3 0-4-6l-1-3zM43 11v1l1-1v-1l-1 1zm1 54-1 10c-1 5-1 9 1 9l1-7V61l-1 4zm810 11c-2 10-2 17 0 18l1-6 1-12c2-5 2-7 1-7-1-1-2 1-3 7zm-468-1-8 4-21 10c-19 9-32 18-30 21 1 2 9 3 20 2l12 1c-1 2 1 2 3 1v-2c-1-1-4-2-17-2l-16-1c0-2 14-12 30-20l32-14-3 7-7 13c-4 8-3 10 1 14h11c11-1 11-2 0-1-8 0-9 0-11-2s-2-2-1-6l9-18 3-7h-7z"/><path d="M423 86c-3 3-3 9 0 10 3 2 9 0 15-4l7-3c2 0 4 3 7 9l4 9h-2l-3 1 3 1c2-1 3-1 4 3 2 2 3 3 5 3 4 0 7-3 7-7l1-3c2 1 2 6 1 9-2 2-2 4-1 6v7c-1 3-2 4-4 5-4 0-10 3-10 4l1 3v4l-2 4c-1 3-2 4-6 3l-3-9-2-8 2-10c3-17 3-17 0-21-2-2-3-2-8-2-6 0-16 5-21 11l-6 5c-4 1-8 6-8 9 0 4 2 4 3 0 0-3 5-8 8-8l4 2c2 2 2 2 0 4l-4 4c-1 3-1 3 2 6l4 3-1-2-3-4c0-3 5-8 9-11 3-2 8-3 9-1h3c0-1-7-4-12-4l-6-1c-1-1 5-6 9-9 5-3 12-4 15-2s4 7 1 16l-1 15c0 6 0 7-4 15l-7 11-4 4-3 3-16-9-2-5c0-4-1-5-4-4l-13 9c-9 8-14 12-17 12l-4-1 4-7 3-7-8 13-4 2c-4 1-18 10-22 14-3 3-4 3-3-1a218 218 0 0 1 22-29c-2-1-19 21-24 31-3 6-6 9-11 13l-11 12-5 6-2-3-1-7v-9c-3-9-2-14 5-21l2-2 1 2 1 5c0 2 2 5 2 3l-1-6-2-6 3-4a2312 2312 0 0 0 23-28l-2 8a92 92 0 0 0-2 12l4-12c3-10 3-11 9-16 8-8 16-12 24-13 2-1 1-1-1-1l-8 1c-5 3-15 9-19 14l-3 2-4 3c-3 2-5 5-19 24-5 7-6 8-8 8-3-1-7 1-7 4-1 3-3 3-5 0-1-2-2-2-7-2-5 1-7 1-9 3l-3 2-1-8c1-7 2-9 4-12 2-4 4-4 4-1l1 3 1-4v-4l11-9 14-11c5-3 5-5 1-7-2-1-3-1-12 6a131 131 0 0 0-15 12l3-16 9-11c8-9 12-16 12-17l-7 7-11 15c-5 6-7 12-8 22-1 6-4 12-12 21-10 11-11 13-11 24l-2 12c-4 7-7 16-7 21l1 6c2 2 1 3-2 5l-9 6a363 363 0 0 1-38 25l-20 13c-12 8-14 9-25 12-8 2-14 5-20 8a1146 1146 0 0 1-66 37 134 134 0 0 0-37 37l-5 3c-3 3-4 2-1-1 3-4 7-11 7-16 2-11 2-12 13-19 13-7 25-18 25-20s-3-2-5-1l-3 2-1 1-7 4c-9 5-14 10-18 16-4 5-9 8-34 22l-6 4c0 2 1 1 5-2l8-4 10-6c10-5 13-6 12-3l-2 6c0 6-4 11-13 20l-8 9c1 2 2 2 3 1 3 0 9-4 11-5 2-3 9-8 11-9 4-1 4 1-1 6s-5 5-2 7c2 1 6 7 7 13 2 7 5 6 7-1l2-4 7 10c0 2 5 7 6 7l8 7c9 8 20 18 24 19l19 7h6c3-1 2-3-1-2l-22-7c-8-4-31-24-31-27 0-1 2-1 14 1 10 1 14 1 13-1l-7-1c-13-1-20-3-22-4l-4-6-3-4 3-3c4-4 2-4-3 0-3 2-3 2-5 0l-2-2 2-5c3-9 5-13 11-19 8-9 10-15 6-17l-4 1-5 3c-2 0-5 3-7 6-6 8-12 14-12 12 0-4 4-8 11-15l8-7 11-8c3-1 1 1-2 3-2 2-3 4-1 4l4-3c4-3 14-11 16-11l6-4c4-3 7-4 9-4a106 106 0 0 0 46-18c1-2 16-10 17-9l-1 1c-9 5-27 21-26 23l6-4c8-8 17-15 22-18l13-6c11-7 17-7 17-3 0 2 0 2 2 0 4-5 6-3 3 3-2 4-2 6 0 8 1 1 1 1 1-1v-4l3-5c1-3 1-4-1-5-2-3-1-3 9-5 9-3 13-2 13 3 0 4 1 4 2 1 1-5 0-6-5-8-5-1-6-1-11 1-9 3-8-1 2-5 2-2 7-3 10-4 7-3 17-8 17-10v-1l-20 8c-4 2-7 3-7 1l4-4 9-7c1-1 2-2 1-3l1-2 5-3c4-4 9-5 16-3 4 1 5 2 5 8 1 5 2 7 6 13 7 11 7 13 6 29-1 15-4 34-6 36l-3-4c-1-4-2-5-10-8l-9-4c0 1 3 3 7 4 9 4 10 5 11 11 0 3 1 5 2 5 3 2-6 20-14 29-4 3-6 7-5 7l6-6c12-13 20-35 22-61l2-13c1-1 2 3 2 20 1 19 2 25 7 35l3 10c0 7 1 10 6 21 5 10 8 14 12 14 2 0 2 0 2 3l-4 11c-4 7-4 7-9 9-3 2-8 2-11 2-5 0-6 0-6 2-1 4 1 5 10 4 4-1 5-1 5 1l1 3v2c0 2 4 1 5-1l2-3c-1-2 5-4 14-4 6-1 6-1 6 1l2-4c2-11 2-11 5-12l5 2 4 2 1 1h1c0-3-1-4-3-4s-2-1-2-2l1-1 3-1c0-1 4-4 9-6l13-9c4-4 4-4 6-2s8 3 13 3l12-2h7l1 4c2 4 4 6 8 8 7 3 0 2-10-1l-2 1 1 2c2 0 10 9 10 11s8 8 13 10c7 2 9 4 11 9l3 5-1 1-6-6c-6-8-15-11-13-4 1 3 1 7-1 6l-1-2c1-3 0-4-4-4l-7 1h-8c-1 0-1 5 2 16 2 8 2 10-1 6 0-1-2-3-4-3l-6-6c-4-7-15-12-24-11-16 2-18 3-26 8-9 4-10 6-8 6h3c1 1 5 5 5 7s0 3-3 4c-4 2-5 2-10 1-9-2-9 1 0 5l5 3-1 7c-2 12-8 24-19 35a94 94 0 0 1-29 22l-26 14c-13 4-22 8-26 11l-24 19-19 18a204 204 0 0 1 73-63 980 980 0 0 0 53-31c-3 0-14 6-23 11a741 741 0 0 1-59 34c-9 6-40 39-50 52l-21 24c-2 0-1-2 2-10 3-6 5-9 5-6l2 1 2-9c0-8 0-10 2-12l2-4c0-4 11-17 28-34 11-11 10-10 23-19l12-6c3 1 4-2 1-2-1-1-4 0-8 3l-7 3 5-5 9-10c0-2-1-2-5 1l-5 3c-2 2-4 1-4-1l2-4c2-1 2-2 1-5-1-5 0-6 1-5 2 0 1-14-2-25l-1-9 9-2 11-2c3 0 3 0 3 6 1 5 0 8-1 5l-2-1v4l-1 12a235 235 0 0 0-2 31c1 2 0 3-10 13-12 13-21 20-22 19l2-4c3-4 2-5-1-2-5 6-6 9-2 9 3 0 8-3 22-17 10-10 13-13 14-12l3 1 13-8 9-7 7-5-1-6v-6c2 0 8 7 11 11l4 4-2-5c-4-4-4-5-3-7 1-1 0-2-7-9-14-12-27-26-26-27l9-1c6-1 9-1 17 1 11 3 21 2 21-2h-18l-9-2c-7-1 9-6 25-7 13-1 18-2 18-4s-2-2-5 0l-15 2c-11 1-22 4-28 7-3 2-16 4-17 3l-2-6c-1-5-2-7-3-7-3 0-2 3 0 9 1 4 2 5 1 6l-21 3-4-1c0-3-3-2-4 0s-2 2-13 2l-18-2-6-1 11-4c12-3 18-6 17-7l-8 2c-14 6-18 6-30 6l-13-2-3-1c-3 1-27-2-46-7-3 0-4 1-1 3l32 6a322 322 0 0 1 38 6l31 3c3 0 3 1 2 4v6c2 6 1 13-5 25-7 14-8 16-5 22 2 6 1 12-3 16-3 3-9 6-10 5-1-2 2-6 6-7 4-2 6-5 2-4-3 1-4 0-2-2v-1l-3 3-3 4-7 4-10 5c-17 4-34 17-37 29l1 9c2 11 2 17 0 25l-7 16a204 204 0 0 0-10 17l-1 2-2 6-3 7c-1 3-8 3-18-2-12-6-13-7-13-15 1-4 1-6 3-8a528 528 0 0 1 24-22c2-3 2-3 1-4-4-1-19 1-28 4l-10 2-9-3c-19-8-45-16-50-16l-6 1c0 1 2 2 7 2l17 4 36 13-6 3-25 9v2c1 1 10-1 22-6s14-5 22-2c8 2 11 3 11 1 0-1-5-4-11-5l-1-2 20-5c8 0 9 0 7 3l-25 21-2 8c0 7 0 7 3 10s7 5 12 7l7 3-4 2-10 5-10 5c-2 2-3 2-5 1-3-2-8-1-19 3l-12 3-3 1-13 6c-16 6-18 7-18 9h4c2-2 28-12 37-15 11-4 22-6 22-4l-8 8-12 12a107 107 0 0 0-14 20l-4 18c-1 4 2 12 5 16 3 3 3 4 3 11v7l3-9c0-2 2-2 4-1 3 0 2 3 0 8a484 484 0 0 0-17 28c-5-2-20-3-21-3l-2 2c0 2 1 2 7 2 9 0 16 1 16 2l-3 7c-1 5-1 5 1 8 2 2 2 2 13 2l32-3a750 750 0 0 1 57-10l16-5 15-5 15 5-11 4c-21 6-32 11-32 14 0 4 5 6 19 6s15 1 11 4c-2 3-14 8-22 10l-9 3-7 8c0 2 13 0 20-3 19-7 28-13 41-24 4-5 8-8 9-8l-4 9c-3 6-5 10-8 12-5 4-14 9-17 9l-8 3-14 5c-5 1-7 2-12 6-3 4-5 5-8 5s-19-7-21-9c-2-1-5 0-5 3l4 3c6 2 18 7 26 12l10 5a320 320 0 0 0 60-7l10-3c7-1 10-3 14-6a139 139 0 0 0 15-18c2-1 9-12 9-14l1-1 2-3 2-4 6 4c5 4 19 10 28 12 7 1 12 1 15-3 3-2 11-4 12-3l-2 8a381 381 0 0 0-9 87h5l4 4 4 8 3 14c1 10 2 12 3 12 2 0 2 1 2 6 1 5 1 5 3 5 1 0 2 0 2-5 0-4 0-5 2-5 2 1 1-1-1-7-5-8-5-21 0-30 4-9 6-18 7-27 3-27 6-40 14-52l15-19c3-2 4-4 4-5l-4 2-3 3-20 28-3 8-2 8-2 19-4 19c-1 6-6 17-7 19l-1 5c-2 6-3 5-2-1 0-4 0-6-3-13l-4-9c-2-2-3 0-2 3l-1 5c-2 2-2 2-3 0-1-1-1-1-1 1l-1 2c-2-1-2-23 0-37l2-18 7-35 4-12a142 142 0 0 1 13-32l9-11a167 167 0 0 0 27-36c8-12 13-23 15-33l1-42-2-39a498 498 0 0 1 2-93c2-1 4 14 4 25 0 26 3 52 6 60 2 5 2 3 1-2-2-7-4-24-5-50a200 200 0 0 0-7-52c-2-2-5-14-6-21l1-7c2-1 2-1 3 1 2 4 13 9 20 10 5 0 6 1 6 2l1 3c0 2 0 2-2 3l-3 4-1 4-2-3c-3-9-3 4 1 14l7 25c0 2-3 7-5 7s-4-10-5-22c0-6 0-7-1-5-1 1 0 14 2 25 0 2 0 3-2 2l-2 1 2 1c3 0 3 1 6 9l4 16c1 7 2 10 5 14 2 3 3 2 3-1l-1-2 5 2c3 2 6 3 7 2l3 1 3 2c2 0 2 0-1-11-1-5-4-8-8-7-2 1-3 0-5-3-5-8-8-14-8-19s1-5 3-2c0 2 1 3 2 3l-1-6c-2-4-2-7-2-14l1-8 2 3 12 20c3 2 4 0 1-2-2-3-2-7 0-10 3-3 4-1 11 18 4 10 9 23 15 33l11 39 5 22c5 14 6 21 9 50 1 22 1 27-1 43-3 20-4 40-1 51 1 9 8 25 12 30l10 13 10 13c3 3 8 15 8 18 0 2 4 14 8 21 2 5 4 8 10 12 4 4 21 22 22 25l1 4c0 1-1 1-3-2-18-20-24-24-36-25-10-1-16-4-16-9 0-2-2-5-8-10l-6-8 2-1c0-1-1-2-5-2h-4l-6-9a545 545 0 0 1-14-31l2-1-3-1c-3 0-3-1-6-7-5-10-8-18-8-21 0-2 0-2-1-1-2 2-1 7 4 17l5 11-8 3c-2 0-1-2 2-3s3-3-1-2l-4 2-5 2h-24c-4-2-5-4-1-6 3-1 5-1 14 1 9 3 13 3 16 0 2-2 1-2-1-5-3-2-4-2-16-2l-23-1-9-1 6-1c5-2 8-2 17-2h11c1-2-1-2-10-3-12-1-23-3-28-6l-8-1h-3v-9l2-25c1-5 2-7 3-7l3-3 4-10c4-9 9-22 9-25 0-5 2-12 4-12 1 0 2 2 0 4-2 1-2 21-1 25 1 3 1 3 1-5 0-16 0-17 6-13l7 4 6 4c2 3 3 4 3 13 1 11 4 20 9 31 8 16 19 32 24 33 4 2 4 0 0-2s-5-3-14-17c-10-16-17-35-17-47l3-18 4 4c7 6 12 7 6 1l-6-9c-4-5-4-5-2-6 2 0 3-1 0-3v-8l1-8c5-25 6-43 4-52l-3-12c-2-9-11-28-13-28l-5 4c-3 3-3 4-3 8 1 6 2 6 2 0l2-6c2-2 5 2 10 12 5 12 7 25 7 36 0 10-4 43-5 43l-5-6c-5-9-8-12-10-12-3 0-3 3-1 9l1 6-9-6 1-4 2-9 3-9c4-4 6-11 7-28l1-15-1-3c-2-1-2 0-2 14 0 12-1 16-3 22l-4 8-2 4-2 3c-2 0-2 1-4 19l-2 15-5 1c-5 1-8 3-8 5 0 1 1 1 2-1 2-1 9-2 10-1l-1 9c-2 8-4 15-9 25l-3 7c-1 2-2 3-5 3s-3 1-5 5c-2 6-2 20 0 23v14l-1 12c-2 3 0 2 2-1 2-4 5-4 14-1l9 2c5 0 3 1-4 3-8 2-10 3-8 5 1 1 5 2 12 2 11 0 13 1 9 3-5 2-1 9 6 10 7 0 9 1 9 3l1 1 11-2 14-2c5-2 8 0 8 3l1 2a486 486 0 0 1 19 35h-3a250 250 0 0 1-79 4c-4-3-4-3 16-9a457 457 0 0 0 35-13v-2c-1-1-6-2-19-1l-13-1c-5-1-11-2-12-1-4 1-9 5-9 7l-6 3-17 8c0 2 2 4 4 4 4 0 6 0 6-2l-2-1h-3c0-3 18-8 42-12l23-3c2 0 2 0-1 2l-6 2-4 1-23 8c-12 3-18 5-18 7 0 1 6 7 9 8a327 327 0 0 0 77-6c1 1-23 11-29 13l-11 3-45 9c-11 1-23 0-36-4l-11-3c0 1 21 8 26 8 8 2 20 1 30-1 24-4 54-12 71-20l9-4 5 4 10 10 12 8c4 4 6 4 12 4l12 4c6 3 24 21 27 26 2 4 4 5 4 2l-1-8c-2-6-2-7-14-19l-15-15c-3-2-7-11-11-21-3-8-3-11-1-8l3 4-4-9c-4-5-8-16-10-23-1-6-1-10 2-14v-3c-2 0-5 8-5 12l2 8v5l-1-1-6-9a88 88 0 0 1-23-43c-2-11-1-26 1-42 3-18 3-31 2-53-2-24-4-37-7-45-3-6-4-10-9-35a148 148 0 0 0-15-41l-4-9-5-13-6-15c-5-10-2-11 2-2l6 7-3-6c-4-6-4-6-1-8s3-2-1-2l-3 1-3-9-5-23v-3l2 4 3 3 2 3 4 6 3 4 2 1c2 0 3 1 3 3 0 3 4 7 8 9 3 2 4 6 2 6-3 0-2 2 0 2 2 1 2 2 2 4 0 3 0 3 3 3 1-1 3 0 4 1 3 2 7 11 9 19l3 5v-4c-1-4 2-1 4 3l2 10-1 8c-1 1 0 3 1 5 2 2 2 4 2 12l-1 13c-1 3 2 16 5 25l2 7c0 3 4 14 6 16l2 6a430 430 0 0 0 10 26l7 22c5 17 6 22 4 20-3-3-4 0-1 4 2 3 2 4 2 8 0 9-3 30-4 31l-4-2c-4-4-8-6-10-6l-4-1-5-1c-2 1-2 1 1 2l5 2 7 4 6 5c2 2 2 2 0 7-3 8-4 15-2 23 0 4 2 8 3 10 1 4 6 6 7 4 1-1 1-1-1-1s-7-8-7-16c-1-6 1-18 4-21 2-2 2-2 6 2l4 4c-1 1 1 4 4 6 7 7 11 17 11 28 0 6 0 7 3 11l15 17 11 11-4 1c-4 0-5 1-5 7 0 3 5 11 10 15l6 5 6 5c3 2 6 4 6 6a342 342 0 0 0 1-1l5 4c4 3 11 8 22 13 3 2 4 3 6 8 4 9 4 11 0 7-2-2-5-3-5-1l4 5 3 4 1 4a37 37 0 0 1 5 27c-1 6 1 14 4 15 2 1 2 1 2-2l-2-14c1-1 1-1 3 1 2 3 3 4 1 4-3 0-2 2 0 5l2 2-2 6c-2 6-2 7 0 14 1 9 4 19 5 21 2 2 4 1 5-2l1-3 1 3c2 4 3 11 2 16l-3 17c0 8-1 10-3 12-3 4-3 5 2 9l5 9 4 8c4 6 5 9 4 13 0 5-2 5-4 1l-5-7-4-6c-3-8-10-18-18-26l-9-9-8-8a324 324 0 0 1-28-33c-5-8-11-14-22-23a1015 1015 0 0 1-32-26l-8-5-10-7-11-5c-10-5-17-9-26-17a83 83 0 0 0-51-21c-7 0-19 2-25 4-6 3-19 9-22 12l-3 3 5 6c5 8 10 11 28 20 27 15 32 28 15 42-12 10-18 12-23 8-6-5-22-5-32-1-6 3-5 3 7 1 8-2 16-1 23 2 6 4 10 4 18-2 10-7 12-8 16-14 8-13 1-25-24-38l-15-8c-3-1-11-10-13-13-1-2-1-2 1-5a79 79 0 0 1 54-14c19 5 30 10 39 19 7 7 17 13 25 17a245 245 0 0 1 65 46 89 89 0 0 1 20 21l6 7 7 9c4 4 9 13 8 14 0 1-12-4-27-12-25-12-35-19-46-31l-12-10c-7-5-13-5-40-5h-25l-5 3c-3 3-5 4-6 8-2 6-4 25-4 45 0 19 1 28 10 45 4 10 5 11 4 15l-1 8-1 6a535 535 0 0 1-71-17c-12-4-25-7-38-8-11 0-38-5-50-8-19-4-29-5-38-5-10 1-12 1-28 6-24 7-21 6-51 20l-10 4c-4 3-30 9-30 8l2-6 2-29c2-38 3-50 6-54 4-6 7-13 9-25 1-6-5-20-16-35a153 153 0 0 1-9-16l-7-9c-5-6-11-10-18-13-2 0-2 0-2 2l7 14 3 3 1 2c3 3 10 18 13 27 5 14 12 45 12 51 0 3-2 6-14 19a471 471 0 0 1-81 62l-4-5c-3-5-5-10-9-30 0-5-2-11-3-14l-2-13-2-15a286 286 0 0 1-3-42 338 338 0 0 1 2-74l2-24c0-10 0-16 1-15l7 11 2 2 1 1 3 5 3 6 1 1 2 3 4 5 6 10-4 1-5 1 2 5 3 8c2 5 3 2 2-3-2-7-2-7 1-7s4 1 7 7c1 4 4 8 4 11l3 6 2 8c3 17 7 26 12 32 4 4 5 5 7 3 1-2 0-2-2-4-6-3-7-7-11-22-4-16-9-30-12-35s-1-5 7-2c10 5 23 16 32 28 9 10 12 20 12 34s2 28 4 33c3 6 6 10 8 10s1-3-1-4l-4-7c-2-4-2-7-3-23-1-18-2-28-4-30l-1-2-7-12-19-20-9-6-5-2-8-4c-5-2-7-3-9-7l-4-7-2-4-3-4-10-15-1-1-1-1a61 61 0 0 0-23-24l-7-4v10h4c7 0 11 9 11 25 0 9 0 12-3 35a430 430 0 0 0 0 88 289 289 0 0 0 11 67l2 10c1 7 3 11 7 15l2 3-2 2-18 10c-10 5-14 8-14 10 0 3 0 3 7-1a203 203 0 0 1 19-12l2-1 4-2c4-3 8-3 11-1l11 3a434 434 0 0 0 21 4l-3 2-17 10-5 3-4 2-6 3-3 1-10 11-17 19-1 1-3-4-2-4-2-4-2-4v8l1 9v5l-1 5v3l2-2c3-3 6-3 6 0l1 2v3l-1-1c0-3-3-3-4-1v1h2c0 1-1 2-3 2-3 0-3 0-3 3s0 3 3 2h4l-4 1c-3 2-3 2-3 6l1 4 1-2c-1-1 1-2 5-4l6-2c1 0 2 3 1 5-1 1-1 1 1 1 3 0 4 7 1 9l-2 3-3 2c-2 2-2 2-5-1l-3-4-1-3c-2-1-2 1-2 18v20h3l3-1h1c2 2 4 1 4-1 0-1-1-2-3-2-2-1-1-1 2-1 4 0 4 0 4 2 0 3 1 3 3 3 3 0 3 0 4-6l1-6a342 342 0 0 1 64-21c0 2-8 10-12 11l-2 2c0 1-9 8-11 8l-2 1-7 5-5 5h22l11-3c42-14 55-17 65-17 5 0 6 1 8 6 2 8 4 11 7 13s5 2 32 2a1710 1710 0 0 0 45-1l14 1-7-2c-10-3-21-4-33-2-15 2-38 2-43 1-6-2-9-6-11-12-1-5-2-6-5-8s-4-2-10-2l-16 4-11 2c-1-1 0-2 7-4l50-11a493 493 0 0 1 91 2c20 3 31 5 55 12l11 3 24 5a2298 2298 0 0 1 55 12c3 0 1-1-11-4a194 194 0 0 1-43-11c-5 0-24-4-38-8a429 429 0 0 0-145-14 441 441 0 0 0-103 31l-6 2-6 2c-2 0-2 0 0-2l5-3 26-21 3-6c0-2-1-3-4-2l-39 10c-7 2-10 3-13 2-3 0-4 0-4 2s-2 3-5 3c-1 0-2-1-2-8 0-8 0-8 3-13l4-4 1-3 2-4-3-5c-2-2-3-2-6-2-4 1-4 1-2-1l7-4c4-2 5-2 5 0 1 2 3 0 3-2s2-4 6-6l8-6 7-5 9-7 22-16 20-10 13-7 4-4 11 1 14 2a611 611 0 0 1 80 15c15 3 26 6 39 12 6 3 43 15 59 19 13 4 25 10 34 19 7 6 17 13 26 16 5 2 7 2 17 2l18-1a333 333 0 0 1 25-7 140 140 0 0 1 36-6l10 4 9 6 6 4c9 7 16 10 20 10 4-1 5-1 5-3 0-3-1-4-7-10l-7-8-1-1c-2 0-3-3-3-4l6 1c2 1 7 3 11 3 7 2 17 7 33 16a491 491 0 0 0 20 12 82 82 0 0 0 61 18c5-1 11-4 16-7 3-2 5-3 17-3l25 2c15 2 32 2 52-1l24-2c9-1 14-3 19-6l8-8 4-3c7-5 17-3 30 6l12 8c4 2 5 3 8 11l5 9c2 1 2-1-1-7l-2-7c1-2 5 3 8 9l3 5c2 0 0-4-3-9s-3-5 3-5l8 3 2 2 2-2c0-2-4-4-12-5-4 0-9-1-11-3l-8-2-21-15 9-1c10 0 19-2 20-5 1-4-5-12-20-21-20-11-31-19-31-21h4l16 1c21 2 29 3 38 8l15 10a481 481 0 0 0 37 32c3 2 3 2 3 0l-3-4-7-5-12-11a1147 1147 0 0 1-33-25c-9-4-16-6-32-7-19-1-27-2-35-7a249 249 0 0 0-19-10l-3-2v2c0 2 3 4 13 9l17 11a237 237 0 0 0 35 23c9 6 15 12 15 15 0 5-23 6-42 3s-50-1-60 3c-3 2-3 2-1 2l6-1c9-3 46-5 46-2l-3 4-6 7c-3 4-11 7-23 8l-24 3c-17 2-34 2-51 0l-23-2h-11v-3c3-5 4-13 3-24l-1-11-2-10-2-13c-3-9-10-20-14-20l-1-1-18-8c-11-5-14-6-20-12-5-5-7-11-5-19l1-18c0-11-1-12-3-16l-6-8-14-9a1078 1078 0 0 1-90-45c-7 0-20 4-33 11-22 11-30 21-24 33 5 11 7 19 8 25 0 8-1 9-3 3l-5-10-4-15c-2-9-2-11-1-33 1-25 2-28 5-34 3-5 6-6 37-6 32 0 31 0 44 13a100 100 0 0 0 26 20c3 3 26 15 38 20 13 5 16 7 16 8l3 6a528 528 0 0 1 24 41c2 3 4 3 4 0v-2c2-1 8 6 9 10 1 2 2 3 4 3 2-1 4 1 3 4l3 6c3 4 4 7 2 9l-2 3c0 3-1 2-4-1s-6-4-6-2l7 8c15 15 16 17 16 18-1 2 1 4 3 4 2-2 0-11-4-19l-3-11c1-5 3-6 6-3 2 2 2 2 4 1 1-1 2-2 4-1l2-1c1-3 4-2 7 0l4 3 2 3 1 5c1 2 2 2 5 2l10-4c8-5 17-8 21-8l10 2c6 1 6 1 12-1s12-3 14-1c2 1 7 2 8 1 2 0 3-5 1-6-1 0-1-2 1-3 2-3 6-3 6 0 0 1 1 2 6 2 7 0 10 0 11 4 1 2 2 2 6 3 4 0 16 5 20 9l7 4c5 2 7 4 4 4l-10-5-5-2c-1 0-1 1 2 4l3 5h-1c-2-3-11-8-16-9-3 0-3 0-3 3 0 5-2 9-4 10-3 0-3 2 0 2 2 0 6-5 7-9l1-4 17 11 6 5c2 0 1-2-2-6l-2-5 6 4c5 4 5 4 14 5l9-1c0-1-2-3-5-3-5-2-8-6-6-7l1-4c0-2 0-2 3-1l9 3c4 2 6 3 8 2l8 2c7 3 13 3 15 0 1-2 3-2 7-2 6 0 17-3 17-4 0-2-2-2-7-1-5 2-16 2-17 1 0-1 4-6 6-6 1-1 1-2-1-5-2-5-2-6 0-4 3 2 6 2 7 0s0-6-3-8c-2-2-11-5-21-9a277 277 0 0 1-31-10l-10-3-5-2-5-2-7-4-9-5c-8-6-11-7-21-8-10 0-18-2-20-5-2-2-2-2 2-4l4-3-11-8 3 3 4 5-3 2-4 1c0 2-2 1-2-1l-2-5-3-10-5-14-4-11-4-8-3-2v-13l-1-16-1-4 7 8c10 17 12 20 12 24 0 5 4 10 9 10l6 3c4 4 15 12 24 17a380 380 0 0 1-8-6l-6-5c-5-3-10-8-10-9l4-1 5-1-6-1h-7l-5-5-4-6 3-11 4-12-4 2-7 2c-5 0-5 0-9-3-4-5-4-7 0-11l6-8c3-5 3-6 2-8-2-3-4-3-6 0-3 2-7 13-7 15 0 5-2 3-5-3-4-9-8-21-9-29-2-7-1-8 4-16l17-39c1-3-1-3-4 1-4 5-10 15-14 26s-5 14-5 10c0-7 3-21 7-28 3-8 9-15 11-15l6-3 12-6c9-3 9-2 11 3l15 36c4 7 9 12 16 17l4 3-3 2-8 5c-5 3-8 4-7 2l2-5 4-5v-1l-1-1c-2 1-6 11-6 13l-3 4c-1 1-2 1-1 2s1 3-2 9l-3 8a434 434 0 0 0-8 37l7-11 11-17-2 3c-4 7-12 17-13 17s-1-1 1-10a290 290 0 0 0 5-17l3-8 4-11c2-3 13-11 24-16 7-4 9-4 13-4h3c-1-2-9-1-12 0-5 4-7 3-13-1-12-9-17-18-28-47l-2-10 24-7 23-6-15 3a1293 1293 0 0 1-32 8c-1 1-3-1-7-11-7-13-9-17-10-27-1-5-2-6-2-3 0 6 4 18 10 30l6 12-6 2-15 7-13 9c-7 11-11 24-11 40 0 9 0 9-3 14l-5 7c-2 0-2 1-1 1l4-2 2-3v4c-2 10-2 17-1 22 2 5 3 6 6 8l7 3c4 1 5 5 5 20s0 15 2 16l4 8 3 9 7 18c5 15 10 25 14 30l1 2-3-1c-5-1-14-5-14-6h4l3-1c-1-2-7-5-13-6h-5l-4-9-5-10c-2-4 0-3 5 0 6 5 11 6 13 4 2-3 1-5-2-4l-2 1c0 4-11-4-18-12l-4-5v-6c0-1 2 0 3 2 1 1 2 2 3 1 2-1 1-3-2-5-2 0-3-1-3-2l-3-2c-2-2-2-3-3-7 0-9-16-55-20-60l-3-17c-2-24-2-27-4-28s-2-3-2-28v-48l-1-21 2 5c1 3 2 4 3 3s-1-17-3-23l-1-7-1-5c-2 0-3-1-6-10l-6-15-10-19 1-2c1 1 4-1 4-3l-3-4c-2-2-2-3-1-6 0-6 1-6 5-6 6 0 7 1 10 7 2 6 4 7 3 2 0-3 1-4 3-2 2 3 1 10-2 16-2 5-2 6-1 8l1 6c0 4 2 7 3 7v-19c2-3 3-2 4 4a601 601 0 0 1 3 74 516 516 0 0 0-4-89c0-6-2-9-6-11l-3-3c0-3 2-7 4-8l1-3v-3l-2 3c-1 2-2 2-5 1l-3-1 1-6c0-9 1-9 3-7l4 5c3 4 4 5 6 5 3 0 2-2-2-7l-5-7c0-5-6-13-9-13-2 0-2 2-1 5l1 2c-1 1-14-12-14-13l2-2 2-2-2-2-5-3-12-7a167 167 0 0 0-9-7l-4-4-4-2 2-2 1-2-1-2c0-2-2-3-6-4-5-1-6-3-2-3l2-1-6-2c-4 0-4-1 1-4h4c2 3 3 2 3-1l3-5 3-4 3-4c3-3 7-9 13-21 3-5 4-19 4-43 0-22-1-31-5-38l-4-4c-2 0-3-2-4-3l-10-12a72 72 0 0 0-18-15l-22-13a90 90 0 0 1-32-25l-1-3c-2-2-2 0 0 4a93 93 0 0 0 37 28 110 110 0 0 1 22 14l13 11c6 6 8 9 11 15 2 6 2 7 2 18l1 27c0 4 2 5 3 2l-1-4c-2-2-2-4-1-12v-27c-1-3-1-3 1-2l3 7c2 4 3 6 2 35 0 29-1 38-3 39-1 1-1 0-2-1l-1-4-1-8-1-8-4-15c-2-14-6-23-10-24l-6-4c-1-2-3-3-3-2l8 8c5 0 8 11 10 27l1 9 1 1-1 1-2-2c0-1-1-2-2 0-1 1 0 3 4 5 3 2 3 2 3 6l-2 6-2 5c-1 3-4 5-7 4l2-3c6-5 2-6-5-1-6 4-8 5-8 2l1-1 5-4c4-4 5-8 2-8-2 0-2 0-1-6l-1-6c-3-1-7 4-7 7 0 2 0 2 2 0 3-3 4-2 2 3l-8 15-4 1-7 2c-6 3-7 3-17-5-4-3-11-5-22-5-5 0-6 0-7-2l-1-2v2l-3-1-3-1 1 2c3 3 8 4 18 4 9 0 13 1 18 6l6 5c2 1 2 1 0 1l-5 2h-5l-6 1c-3 2-14-1-20-6-2-2-3-4-1-3h1l-5-1-16-6-25-11c-1 1 2 3 14 8l12 6c-1 1-15-2-21-5l-6-4-2-3-4-2c-2-3-4-3-7 0s-4 3-9 3c-3 0-4-1-7-11l-4-13-1 2-1 1-6-10-7-9c-4-3-4-5-1-5l2-1c1-1-2-3-7-4-4-1-7-3-4-3s2-3-2-6c-3-2-5-4-5-6s0-2 4-1c6 1 5-2-2-4-5-2-6-2-8-6-3-5-5-23-3-27 1-2 1-3-1-7l-2-4 3-7 3-10v-4h-5c-6 0-10-1-10-4l-2-5c-4-5-5-10-5-13 1-1 1-1 3 2l5 5 5 6c1 3 3 4 4 4l4 1c2 0 3-3 1-5l-1-3c-1-3 1-3 4 1 3 2 3 2 2 4-2 2 0 4 2 4 4-1 3 1 0 4-4 2-5 4-2 4 2 0 9-7 9-8l-11-11-4-2c-1 0-2-1-2-3l-4-5-6-5-7-3-6-3-13-15 7 2c13 4 14 1 1-6-6-3-8-4-9-7-2-6-4-7-13-6l-14 1c-5 0-6 0-8-3s-3-3-6 0c-4 5-20 15-24 15l-2 1c-2 3-5 2-6-1s-1-6 2-15l1-6 1 4c1 3 1 2 1-3l2-12 2-4a388 388 0 0 1 1 32l3-6a897 897 0 0 0 8-46l-2-2-2 1-2 1-1-1 7-26c3-8 4-5 4 10l1 14c2 1 2 3 1 8-1 10-2 19-1 20a382 382 0 0 1 8-55c2-8 7-20 8-19l1 6 1 5c2 0 2-1 1-5 0-4 0-5 4-3l8 2 8 2 4 2 4 2c2 3 4 2 2-1l-2-2c1-1 13 2 13 3l-4 6-8 9-3 5v-4c-1-6-2-2-2 11-1 14-2 15-9 23-5 5-8 12-9 18l-2 7c-2 2-3 4-1 5 1 1 10-10 14-16 2-3 4-4 10-6 5-3 7-3 8-2l-5 4c-6 4-18 14-18 17 0 1 8 2 9 0l-2-1c-3 0-2-1 2-5 5-5 16-12 29-18 25-12 37-15 54-15 10-1 11 0 16 2l16 8c2 0 10 5 13 9 2 1 4 5 5 10l4 9c3 3 4 2 1-2l-4-10c-3-9-8-14-18-18l-11-4c-12-7-12-7-25-7a100 100 0 0 0-42 11l-11 4 7-5 5-3c0-1 9-12 23-26l13-16 2-4v3l-1 4-1 4-2 9c-2 3-3 5-2 6l5-12 2-1c2 1 2 1 2-6v-7l4 1c3 2 4 2 4 1l-4-3c-3 0-3-1-3-4 0-2 0-3 2-3 4 0 10 5 13 11 1 2 3 4 6 5 4 2 5 3 5 10l1 6c1 2 8 5 12 5 5 0 8 4 12 15l5 10c5 6 8 14 10 26 2 13 2 14 0 15l-6 3c-6 4-9 3-5-2 2-2 2-4-1-4-2 0-8-8-8-14-1-6-7-18-11-22l-9-5c-6-3-17-4-18-2-1 1 0 1 4 1l9 2 6 1c3 1 11 9 12 13a229 229 0 0 0 9 31l-13 6-6-2c-12-4-26 1-36 13l-9 11-4 4c-3 0-5 7-2 11l3 6c2 7 5 8 8 2 2-3 2-4 1-7-2-3-2-3-2-1 0 3-1 4-3 3s-2-2-2-6l1-5c1 0 2-1 1-3 0-2 1-3 3-4 1 0 2-1 2-3l3-4c2-2 3-2 6-2h3l-3-1c-6 0-3-4 7-9 7-3 9-4 14-4l8 1c2 2 2 2 0 3-2 2-2 2 0 4l1 2h-2c-5-2-8-2-9 1l-2 2-11 7c-6 5-8 10-10 23l-3 9-3 14c0 5-1 7-2 7l-2 13-1 8v5l1 5c0 5 1 6 4 1 2-5 4-5 4 2l2 7 1 3c1 3 4 6 6 6l1-2c1-1 1-1 2 1 2 5 5 7 5 4l1-3 2-15c0-9 0-13-1-12l-1 7c0 8-3 8-4 0l-3-6c-1-3-1-3 10-18 7-10 8-12 6-12-1 0-10 9-10 11l-3 4c-3 3-3 3-4 2-1-2-1-10 1-11h1l2 1c2 0 9-7 9-9l1-1 2-3 3-3v17c0 15 0 18-2 19l-3 6c-2 8 2 23 7 24 2 0 2-1 2-8l-1-20c0-7 2-20 4-25 2-2 16-17 22-21 3-3 4-2 3 2v7c1 2 0 3-3 8l-4 7 4-5 5-6 5 5c9 8 20 13 31 12 7 0 16-3 17-5l-4 1c-8 4-22 3-33-2-5-3-14-11-14-14 0-2 3-6 5-6s2 2 1 4c-2 1-2 1 0 2l2 2 17 8c1 2 8 5 11 5 3-1 3-4-1-5l-7-2c-2-2-5-2-5-2l-3-2c-2-1-3-2-3-5-1-4-6-13-8-13v-18c2-2 0-6-1-6-2 0-2 0-1 2v4l-1 2-1-3-3-7c-3-6-2-9 2-8l9 1 2 6 5 28-2-13-2-15-1-4h33c14-1 15-1 23 5 27 21 30 24 38 25 4 0 11 5 9 6l-29-11c-7-3-9-5-10-7-2-3-3-4-3-1 0 4 4 7 20 13l24 8 6 3c4 2 6 4 7 6l2 8c3 7 3 7 0 8l-1 1c2 0 3 2 7 12 2 6 3 15 1 15l-1-2c0-3-1-2-5 2l-3 3v-3l1-5 3-4v-4h-2l-4 1h-3l2 2 2 4c0 3-2 1-8-6-7-8-11-11-21-14l-8-4c0-1-3-2-3 0 0 1 6 5 8 5l7 2c5 2 7 4 14 11 8 8 9 10 8 12 0 2 0 3 2 4v6l-3 8-2 10c-2 9-1 21 2 21l3-5c2-4 2-6 1-11 0-7 2-19 4-19l1 2c-3 8-2 18 1 18 1 0 2-1 2-3 1-5 5-11 7-11v2c-2 4-1 5 3 2 2-2 2-4 2-9l1-12c1-6 0-3-2 5-1 6-1 7-7 12l-7 6a40 40 0 0 1 5-21c3-5 3-6 3-11l-5-15-2-5 5-3c3-1 5-2 6-5l3-3 8 18 2 15c0 11 1 16 3 14l-1-5-1-11-1-12c-1-6-10-23-15-31-3-4-12-10-17-12l-7-4c-3-3-5-4-11-5-6 0-7-1-10-4a96 96 0 0 0-27-20c-4 0-4-1-8-6-2-4-5-6-6-7l-1-1c0-2-9-14-10-15l-5-4c-5-4-8-11-8-16 0-6-3-15-5-16v9l-3-2c-5-4-13-18-15-26l-2-5c-3-1 1 12 7 24 4 7 5 9 7 9 3-1 8 3 8 7 0 3 3 11 5 13 2 3 0 3-4 1-4-3-10-5-15-5l-8-2c-4-2-4-3-5-13l-4-16c-2-9-2-12-1-14l1-7v-3h5c9 0 15 3 23 11 6 6 7 7 14 9l9 1c1-1-2-5-5-7-5-3-6-4-6-8-1-7-3-14-6-19l-3-11c0-10-3-14-12-19l-9-5-3-2c0 1 10 8 13 8l5 4c3 3 3 5 4 12l3 12 6 18c0 5 2 8 8 12 4 3 2 3-5 1-5-2-8-3-13-8l-9-8-11-2-9-2-3-8-2-13c0-7-3-26-5-33-2-8-3-13-2-17 0-4 1-4 3 0 1 2 4 3 6 4l3 3-2 5c0 3 0 4 5 8 4 4 3 2-2-3-1-1-1-3 1-11 0-3 0-3-3-3s-8-4-8-9v-14c3-14 2-18 0-25-2-6-2-13-1-27l1-11c-1-4-4-4-7-1 0 2-1 3-2 3l-1-7c-1-5 0-9 3-21 1-6-4 1-7 8l-1 9-1 5-1-2c0-3-3-4-6-3-2 0-2 0-1-1 1-2 1-3-4-7-4-4-5-4-5-9-1-6-3-10-8-14l-5-4-2-2-3-3-2-4 2-3 4-2 3-2c2-3-1-4-7-1-6 2-6 2-8 0l-3-2-5-2-13-5c-12-5-20-5-24-2zm14 0 4 2c0 2-11 7-14 7-3 1-3 0-4-3 0-6 5-8 14-6zm18 7c6 2 6 3 4 7l-2 4-6-10c-1-3 0-4 4-1zm10 6c1 2 1 2-2 4h-3c0-5 3-6 5-4zm13 0c0 1-3 3-5 3s-1-2 1-3h4zm-10 5-3 3-3 1 3-1c2 0 3 0 3 2s-3 5-5 5-5-5-3-6l1-1c0-2 3-4 6-4l1 1zm9 16-1 3c-2 0-2-1-2-4l1-4c1-1 2 1 2 5zm-51-4c1 2-4 3-6 2v-2h6zm60 10c2 5 2 7 0 6l-4-10c0-3 2-1 4 4zm4 0c3 6 2 8-1 2-2-4-3-6-1-6l2 4zm-8 0 1 4h-5c-5 0-5 0-5-3 0-2 1-2 3-2l3-1c1-2 2-1 3 2zm-165 0-15 13-10 8c-3 3-3 0 0-4 6-7 25-21 25-17zm169 8c3 2 3 4-1 4-3 0-4 1-4 2-1 3-5 2-7-2l-2-4c1-3 11-2 14 0zm-15 2c0 3 3 7 6 7h5c3-1 3-1 9 10 3 5 3 6 2 9-1 4-3 6-7 4-4-1-8 4-5 7l6 17-1 2c-2 0-2 2-1 2 2 1 4 7 8 19 2 7 2 8-5 12l-8 4-2 1h-2c-1-1 0-2 5-7 9-9 10-10 9-13s-4-3-4 1c0 3 0 3-2 3s-5 2-8 6c-5 4-7 6-8 5s-1-1-3 7c-1 3-2 4-4 3h-3c0-1 2-6 5-9l3-5 2-5 1-13 1-12h3v9l1 11c1 1 5 2 5 0l-2-1c-2 0-2 0-2-10l1-11-3 1h-5c-1 1-2 0-3-4-2-6-2-8 0-9 2 0 2-1 2-5l2-11 1-7c-1-2-1-1-3 6l-3 4c-1 0-4 6-4 10 0 3-3 7-6 7-2 0-1-8 5-29l4-17 6-2 2 3zm19 5 1 4v4l-2-3-3-5h4zm-43 8-3 3c-6 3-6 2-1-5 2-4 2-4 3-2l1 4zm49 0-1 4-1-4c0-2 0-4 1-3l1 3zm-90 2-2 2-9 5c-7 5-8 4-2-1 10-8 13-9 13-6zm96 0v5c-3 7-6 5-4-3 0-4 2-5 4-2zm-48 6-4 12-4 12-2 6-6 9v6c1 1 1 1 1-1 0-4 2-9 4-10h2c2 1 2 0 2-2 1-5 3-5 4 0 1 3-2 9-4 8-1-1-1 1-1 4 0 4 0 5-3 8l-3 2-4-11-4-4c-3-1-4-2-4-4l-1-4v-7c0-4 1-7 2-7l3-6 2-5 4 16c0 5 1 7 3 6l-1-8a210 210 0 0 1-3-17c-1-1 0-2 5-5l9-3h3v5zm61-1c2 6 0 17-2 17l-1-2 1-9c0-8 1-10 2-6zm-112 1-11 15-4 4-2-2c-5-4-4-5 11-15 3-3 6-4 6-2zm104 0 2 11c0 13 0 14-5 6-4-7-4-8-1-14 3-4 3-5 4-3zm-99 1 8 5c12 6 12 5 10 15-3 10-3 11-6 11-2 0-7 1-9 3l1 2c2 3 1 3-2 2-2-1-3-2-3-4-1-3 0-4 3-8 4-6 5-8 3-9l-3-3c-2-5-4-3-5 5l-2 11-1 6c0 4-2 5-6 1-3-3-4-6-1-11 1-3-1-2-3 1s-6 32-5 34c2 1 2-1 3-12l2-13 5 4c4 3 4 4 2 5l-1 3-1 1v2c1 2 1 4-1 10-1 8-3 10-3 6 0-2-1-3-5-3h-6c-1 1-1 1-1-1l1-3c1-1 2-4 2-12l2-18c1-7 1-9 7-14l9-12c3-5 4-6 6-4zm118 7c-1 10-2 14-3 14s-4-14-3-16c1-3 3-6 5-6l1 8zm-14-2c0 6-1 9-2 4v-9l2 5zm-232 0-1 10c-1 7-1 7-6 13-6 6-8 5-6-3 0-6 3-11 8-18 4-4 5-5 5-2zm151 3h-2v-2c2-1 2 0 2 2zm65-2v1l-1-1v-1l1 1zm0 5-2 13-3 12c0 4-2 1-2-6 0-9 4-22 7-22v3zm-6 0-3 12-4-12h7zm31 11 2 18 1 16v14l-2 14c-1 14-5 2-6-17l-1-19c-2-13-2-23-1-28l4-9 3 11zm-208-9-2 4-4 5c-1 2-2 1-2-2 2-5 6-9 8-7zm61 1-4 5-5 4 2-6c2-4 2-5 4-4l3 1zm129 2 5 7 2 2-3 20-3 20-3-2c-2-2-2-4-2-10v-9l-1-1-2 2-1 3-1-3v-10l3-9c1-1 1-1 1 3l-1 7c-1 3 0 4 2 2 2-3 2-14-1-16v-6l1-4 4 4zm-137-2-2 5-2 6c-1 4-6 10-8 9-1-1-1-2 3-9l3-8 1-3h5zm17 1c4 3 3 6-6 15l-9 9v-8l-1 2-2 6c0 4-4 13-8 16-3 4-6 11-6 14l3 7c3 3 3 4 3 13v9l2 4 4 9 2 7-2-2c-2-3-10-6-8-3v28c-2-1-5-16-5-26 0-8-1-10-3-14s-2-5-1-12c0-6 0-7-2-7l-1-11c1-15 4-25 10-32s7-8 7-4c0 2 0 2 1 0l1-4c0-3 9-13 11-13l4-3c3-2 4-3 6 0zm-84 0c2 1 2 4 3 8 0 6 0 6-4 11a59 59 0 0 0-7 12c-5 7-12 34-14 49-1 6-3 4-4-7v-35c1-8 2-9 7-19a158 158 0 0 0 8-15c2-5 2-5 6-5l5 1zm112 3c0 2 0 4-2 6l-1 2-1-3v-6c1-2 3-1 4 1zm-53 2c-2 5-5 9-6 8-2-2-3-1-2 2 0 2 0 4-3 7l-3 5-3 5c-3 6-7 11-8 11s-1-5 1-16c2-8 3-10 6-13l9-6c6-5 10-6 9-3zm-73 2-5 9c-2 2-1-1 1-5s4-6 5-6l-1 2zm166 1-2 3-1-3 1-3 2 3zm6 3-2 3-2 3v-3l1-3h3zm-73 4-1 8-1 5h-4l-8 2c-3 2-5 1-3-2l16-17 1 4zm79 0c1 3 2 6 1 7l1 2c1 0 2 1 2 7 1 9 0 10-3 10-1-1-2-1-3 1s-2 0-3-7l-2-12c-1-5 0-6 1-9l4-3 2 4zm-185-1-6 16c-5 6-9 18-9 24v4l-2-3c-2-3-3-5-3-8 0-6 4-17 7-21l2-2 1 3 2 3v-3c-2-6-1-7 2-11 4-4 7-5 6-2zm22 16-7 24-12 47c0 5-2 4-3-1-2-9 2-36 8-53 5-13 14-30 15-27l-1 10zm6-5c0 5 0 5-2 5s-2 0-2-4l1-5c0-4 2-1 3 4zm206 1 2 21c1 18 2 22 6 31s7 17 7 26a615 615 0 0 0 3 30l1 5h-8l-8-1 7 2c9 2 9 2 10 12l2 8c2 3 5 20 4 21l-2-2-3-4-6-11c-4-10-6-13-13-14l-7-2c-2-1-3-2-3-7s-1-8-2-9-3-3-3-5c-1-4-8-16-11-18-4-3-4 0 0 4 6 6 4 10-2 5l-5-4-2-1c-1-1-1-1 7-16a146 146 0 0 0 11-28l2 4c1 3 0 5-1 12-2 9-2 11-1 11l3-6 3-6 5 7c5 8 5 12 2 26-3 10-3 12-2 11 2-3 6-19 6-25s-1-7-5-14l-5-8 1-8 1-10v-7c-1-4-1-6 1-19 3-21 4-22 5-11zm-94-5-1 1-1-1 1-1 1 1zm-85 2-1 9-2 10c0 3-1 4-4 8l-7 4-2 1c1 2 4 1 7-2 6-5 5-1-1 13l-6 14c0 2-1 3-2 3v-1l1-8 2-7c2 0 1-2-1-1-3 0-3 1-3 6l-6 40-2 8-3-1-8-3-5-2v-9a139 139 0 0 1 13-45l3 6c3 8 3 14-2 24l-9 18c0 3 2 0 8-13 7-14 7-14 7-21 0-4-1-8-3-11-3-7-3-8-1-10l2-3 1 3 4 6c2 0 1-2-2-6-3-5-2-6 3-13 4-6 17-18 18-18l1 1zm93 0-1 1c-1 0-2 0-1-1l1-1 1 1zm29 6c1 7 0 8-2 2-1-4 0-10 1-8l1 6zm72 5-1 6c-1 0-2-14-1-15s2 3 2 9zm-181-3c-3 2-4 0-1-2l2-1-1 3zm34 3-1 6c-1 1-1 1-1-3 0-5-1-5-4-2s-6 5-7 4l-1-3c0-3 6-7 11-7 3 1 4 1 3 5zm28 0 1 2-7-3c0-2 4-1 6 1zm-137 21c0 20-1 21-2 19-5-6-5-24 0-36l1-3 1 20zm32-16c-1 1-1 1-1-1s1-4 2-1l-1 2zm40 4-2 18v24c2 2 5 19 4 21 0 3-1 2-3-1s-2-3-2-1l2 5c1 2 1 2-5 12l-7 9-1-7c-2-9-2-21-1-45l1-21 4-7c4-8 10-16 11-14l-1 7zm73-5c2 3 6 4 7 1 0-2 0-2 4 0 2 1 3 2 3 4 0 4-1 6-5 6-3 0-5 2-5 5 1 3 4 2 8-2l4-4v3l2 6c2 3 0 8-3 9l-3-1-6-1-5-1v-5c0-6-1-6-3-1l-3 3c-2 0-1 4 1 6l2 5c0 2 0 2 3 2h5c3 2 10 0 12-2l3-2v-4l1-3 4 2 1-2c-1-3 1-6 3-6s3 2 5 5c2 4 2 5 1 10-3 8-3 10-8 12-3 1-7 4-9 7-5 4-9 5-9 3l-2-3v-2h2l2-2c2-2-1-4-7-5-5 0-6 0-8 2-3 2-3 2-6 1-4-1-4-1-6 1-3 3-4 4-2 4l4 3c4 4 5 4 9 2h5l5 3c4 1 4 2-4 9-6 7-5 7-15-1l-5-3-4-4c-1-3-3-5-4-5s-1 1 1 4v3l-1-1-4-2c-3-1-4-3-6-7l-3-5 2-14c0-8 1-15 2-15l2 1h3c1-2 7-3 7-1 1 3 2 1 4-8l3-9h5c5 0 6 0 8-2s2-2 3 1zm20 0 3 5-6 4v-1c2-1 1-7 0-7l-2-2c0-3 1-2 5 1zm-130 9c-1 5-3 7-3 3l2-8c2-5 3-2 1 5zm56-2-2 11c-1 7-1 7-3 5l-3-5c-1-4 1-11 5-15 3-3 5-2 3 4zm91-4-1 1-1-1 1-1 1 1zm-5 3-1 2-1 4c0 2 0 3-2 3s-2-2 0-7 4-6 4-2zm-148 3-3 9a518 518 0 0 0-14 47 364 364 0 0 1 13-53c2-8 5-10 4-3zm156 3c-1 2-2 0-2-3h2v3zm46 0c1 2 2 9 0 9l-4-10c0-2 2-1 4 1zm-124 2c0 2 0 2-1 1-2-2-2-4 0-4l1 3zm59 1c1 3 0 5-2 2-1-2-1-5 1-5l1 3zm58 1c-1 3-3 5-4 4l3-7 1 3zm-193 3-8 22-1-1 6-21c1-4 4-4 3 0zm74-2 1 9-1 13-1 2c-2-4-4-6-6-5l-2-1c-1-3 0-6 2-6 2 1 4-5 4-10 0-3 1-4 3-2zm82 1c1 0-1 5-3 6s-2 1-3-3l-2-3c0-2 7-2 8 0zm-200 7c0 2-1 2-5 2-6 0-6-1-3-3 6-4 8-4 8 1zm4 0-1 2-1-3c0-2 0-3 1-2l1 3zm106-3-1 2-1-1 1-2 1 1zm134 3-1 4-1 1c-2-4-2-5-1-6 1-2 2-1 3 1zm-176 23c-1 17-1 21 1 32v15c-2-5-4-8-7-10-2-1-3-2-5-10l-2-14c0-6 13-40 14-35l-1 22zm38-19c-2 3-4 4-4 2s3-6 4-5v3zm56 2-1 1c-2 0-3-3-2-4 0-1 3 1 3 3zm58-2c0 2 0 2-1 1l-1-2c2-2 2-1 2 1zm17-1c1 0-1 10-3 13-9 21-10 22-10 11 0-9 3-16 7-21 4-4 5-5 6-3zm-68 3-3 3-1-2 2-2 2 1zm29 2-1 2h-2l2-2h1zm10 2c0 2-2 4-3 4v-4c1-2 3-1 3 0zm-101 2c0 2 2 3 3 4 3 3 9 15 6 15h-2c-4 2-9-5-11-14-1-6 2-10 4-5zm-97 6c4 11 3 13-1 5-3-5-4-11-2-10 1 0 3 2 3 5zm5 4c2 9 2 12 1 12l-2-6-2-10 1-3 2 8zm20-2c-1 1-1 0-1-1s0-2 1-1v2zm184-1c2 7-1 21-8 34-4 7-5 12-1 6 2-4 4-2 1 2-2 5-7 11-12 16l-11 13-10 9c-1-2 0-5 3-9a2630 2630 0 0 0 12-24c4-7 7-16 7-20 0-5 5-22 7-24 1-2 2-2 3-1 1 2 1 3-1 8l-2 12c-1 5-1 5 1-2l3-12 2-3 1 2 1 5c1 1 1 1 1-1l-1-5c-1-2-1-3 1-5 2-3 3-4 3-1zm-260 4-27 18c-1-1 3-4 9-8l13-9c4-2 5-3 5-1zm75 3-2 2 1-3 1-2v3zm55 2v6l-1-2-1-4 1-2 1 2zm-131 2-8 4c-2 0-1-2 3-4s5-2 5 0zm227 0-9 12c-2 3-3 3-4 2-3-3-2-4 1-5l7-6c5-5 6-6 5-3zm17 0-2 4c-1 5-1 6-2 4s1-10 3-10l1 2zm-92 3c3 2 4 3 4 5 0 3-3 2-5-1-3-5-3-6 1-4zm12 4c-1 1-3-1-3-3h2l1 3zm73 0c-1 1-2-1-1-3h1v3zm-164 4-2 7c-1 0-1-8 1-11l2-3-1 7zm95 3c2 2 4 4 6 4l2 2 1 2v1c-2 2-1 3 2 3l2 2c0 1-1 2-2 0h-3c-9-1-19-6-19-9l3-11c0-1 2 0 8 6zm-175-4c1 1-4 3-6 3-2-1-6 1-14 5-12 7-15 6-4-1 14-7 21-10 24-7zm154 2 4 5 2 3-2 7c-2 6-3 6-5 5-2 0-2 0-1 1 2 1 2 2 2 4-1 3-3 2-4-3-1-6-3-16-2-17v-4c1-3 2-4 5-1zm-85 4c0 1 0 2-1 1l-1-3c0-2 0-2 1-1l1 3zm93-2-1 3-1-4c1-2 2-1 2 1zm78 1-11 18c-2 3-3 5-3 15l-1 13c-1 2-22 18-25 18l1-4c1-8 5-19 11-28a443 443 0 0 0 15-25c5-6 15-12 13-7zm5 3c-1 6-6 18-10 26-6 12-7 13-7 3 0-8 2-13 4-16a131 131 0 0 0 12-18l1 5zm-141 2 2 7c0 1-5 2-6 0-1-1 1-13 2-13l2 6zm-30 1c0 6-2 6-2 0l1-5 1 5zm118-3 2 3c0 2-4 1-4-1-2-3-1-4 2-2zm-52 2 3 15-1 3-4 10-3 10-1-5c0-5 0-5-2 5l-1 17c-1 7-2 8-2 6l-4-14c-4-10-4-13-4-19 1-8 1-8 7-17l7-10c1-2 4-3 5-1zm-62 1c1 4-1 17-2 17-2 0-2-5-1-12l2-6 1 1zm146 0-11 9c-3 0-2-2 0-3l6-5c2-2 5-3 5-1zm-267 2-24 12-12 8c-5 5-15 10-18 9-1-1 10-9 16-12l5-4 3-1 7-4 16-8c6-2 8-2 7 0zm128 2 8 3 4 1v21c0 19 1 33 3 44 0 5-1 5-5 1-8-10-16-25-16-32-1-4 0-5 2-5 3 0 4-1 1-2-2 0-3-2-3-5 0-2 0-2 3 1 4 4 5 4 0-2-3-4-3-5-3-13 0-10 1-14 2-14l4 2zm-117-1-1 1h-1l1-1h1zm232 4 3 2h-4c-6-1-8-3-6-4 2-2 4-1 7 2zm21 0-9 14a121 121 0 0 0-14 35c-1 3-2 4-6 7l-10 7c-5 5-7 6-7 4s11-16 13-17l3-12c0-4 0-5 2-7 2-1 2-2 1-3-1-2 3-9 11-17l17-14-1 3zm66 6c-1 1-1 1-2-1l-1-4c1-1 1-1 2 1l1 4zm-181-3 3 14-3-2c-4-3-7-5-4-2l6 5c1 1 2 3 2 13a87 87 0 0 1-1 25c-1 11-3 18-5 18s-3-4-4-21c-2-23-2-47-1-50 1-2 1-2 4-2l3 2zm103 0-2 1-1-1 1-1 2 1zm-96 2 2 8v6l-2 1c-1 1-2 0-2-6l-2-8c0-4 1-4 4-1zm-39 24c2 6 4 17 2 15-3-3-7-32-6-37 1-1 2 2 2 8l2 14zm75-18 1 6v5l-1 8-1-5-1-14c-1-5 1-5 2 0zm177 15-1 2-1-3 1-3 1 4zm-212 2 1 3c2-1 4 2 3 6l1 5 3 17 1 16-2 9-3 9c-1 1-9-12-9-13h5c3 1 8-1 6-3h-2c-2 2-2 2-5 1-5-1-5-3-2-16l1-23 1-15 1 4zm-254 0-4 4-7 4-7 5c-2 1-2 1-1-1l9-7 6-4c5-4 7-4 4-1zm363 18c-1 1-2 3-4 3-4 3-4 1 1-6l4-6v3l-1 6zm-97 4c2 8 2 12 0 17-1 3-1 3-2-3v-21l2 7zm90-5-1 1-6 12-3 1-5-1-2-2c0-1 3-4 8-7 8-5 9-6 9-4zm-79 14-2 12c-2 1-2-2-2-9 0-6 0-8 2-11l3-3-1 11zm-48 3c-1 1-3-1-5-4-4-6-5-8-4-9l9 13zm-232-1c-3 5-15 17-16 17-2 0-1-3 0-4l9-10 9-9c3-2 2 0-2 6zm340-4-7 4c-2 0 4-5 6-5l1 1zm-113 3 13 13c3 2 3 2 3 11v8h-3c-4 0-5-2-10-13-5-12-8-22-5-20l2 1zM57 374l-3 9c-1 2-2 2-4 1-7-1-7-4 0-9l6-4c3-3 3-2 1 3zm497-2 10 2 12 6c8 4 10 6 13 10l3 6 2 3c4 2 10 12 7 12-2 0-24-12-28-16-2-1-4-2-6-1l-11-3-9-3c-2 0-2-1-3-8-1-10-1-10 1-10l9 2zm-240 6c-1 5-2 4-2-1 0-4 0-4 1-3l1 4zm27-1-1 3v-4c1-1 1-1 1 1zm-21 4c4 7 6 12 5 15s-2 5-8 8l-8 4-3 1-2 1c-2-1-2-2 0-6l5-11c2-7 4-10 7-10v-2c0-3 2-3 4 0zM51 392c0 8-2 7-4-1 0-3 0-3 2-3s2 1 2 4zm476-2-1 1-1-2 1-1 1 2zm29 3 9 3c3 0 24 12 24 13l-6 1c-4 0-6 0-7-2-2-2-3-3-11-3-9 0-10 0-14-2-3-2-4-4-4-7-1-6 0-6 9-3zm-10 4c1 4 0 5-3 2h-5l-5 1c-1-1 0-2 4-4l7-3 2 4zm-218 0-1 2-1-2 1-1 1 1zm197 2v10c0 2-11 7-12 6s0-3 1-5c1-3 1-4-1-5-2-2-2-4 0-4l5-2c4-2 6-2 7 0zm-17 6c-1 2-2 1-1-1h1v1zm31 0c0 2-4 4-5 2-2-2-1-3 2-3l3 1zm13 2c-1 1-4 0-4-1 0-2 1-2 3-1s2 1 1 2zm-230 3-1 3v-7c1-2 2 1 1 4zm250-2c1 1 1 1-1 1-3 1-8 0-8-1h9zm-65 2c3 0 3 0 3 4s0 4 3 4l5 1c2 1 3 2 6 1l3-1 5 22c0 3 0 3-3 3-4 0-26 22-27 27-1 7-2 4-1-4 1-18 1-18 5-21l8-4 5-5 2-2h-3l-8 2-7 2c-7 4-22 18-23 22-1 7-5 12-4 5a128 128 0 0 1 24-42c-1 0-4 1-5 3a200 200 0 0 0-22 40l-3 6-1 1c-2-1-1-14 1-21l5-9c2-4 2-4 1-6-3-4 0-12 7-18 4-4 8-6 9-5l-3 7c-5 10-5 13 0 7 5-5 5-6 6-12 2-8 2-9 6-8 2 1 5 2 6 1zm112 8c11 8 17 14 16 14-1 1-9-2-15-6-5-3-12-10-12-13 0-1 6 1 11 5zm-94-1h-4l3-1c2 0 2 0 1 1zm9 2 3 7c2 4 2 5 1 6-1 2-5 2-5 1-1-1-2-15-1-16l2 2zm-235 2-1 2c-2 0-2-1-1-2 1-2 2-1 2 0zm120 2c0 1-1 2-2 1l1-2 1 1zm-11 3-2 6c-3 6-4 12-3 15s2 8 1 10 0 4 2 4l1 1 1 2v6c0 5 2 5 3 0 0-5 1-6 2-3l-1 7c-2 8-2 23-1 31 2 9 5 17 7 20 4 5 4 5 2 9l-2 5c-1 2-2 1-3-4a184 184 0 0 1-12-48v-12c2-4 2-11 0-12-1-2-7-23-7-30l-1-6 5-1h8zm-42 3 8 3c6 3 22 20 22 23l-2 1-4 2c-2 2-2 3-2 6l1 4h-4c-3 0-7-1-10-3-5-3-6-4-6-6l-1-3-1 3c0 1-1 2-3 2s-2 0-2-2l-1-3-3-2c-1-2-2-1-1 2l-1 4-4-4c-6-5-9-6-15-3l-5 4h-4l4-4 5-3-1-5c0-4 0-5 3-7l4-4c0-1 9-5 14-5l3-1 6 1zm91 2-1 2c-1 1-1 0-1-1l1-3 1 2zm-48 9-1 9-1 1c-2 0-1-9 1-14l2-5-1 9zm5 3c-2 6-3 6-3 0l2-8c1-3 2 4 1 8zm127-4-2 2v-6c1-1 2 3 2 4zm96-3c4 2 6 4 4 4-3 0-10-4-10-5 0-2 2-1 6 1zm17 2c3 2 4 4 0 5-2 0-10-4-11-6 0-2 7-1 11 1zm-146 3c-11 8-14 11-14 13 1 1-2 7-3 7l-1-3-3-2c-2 0-1-2 4-7 7-5 15-10 17-10s2 0 0 2zm-86 2-1 2-1-3 1-2 1 3zm40 0-1 2-1-2 1-2 1 2zm77 1-1 1-2-2 1-1 2 2zm121 2v4c-2 0-6-4-5-5 1-2 4-1 5 1zm-115 4-3-1c-2-4-1-5 1-2l2 3zm125-2 7 6 7 10-17-9c-3-2-3-3 0-4 2 0 2 0-1-1-2 0-3-1-4-3-2-3 1-3 8 1zm-135 0c1 2-2 8-3 7l1-8c0-2 2-1 2 1zm-107 1c2 2 4 2 7 2h5c1 2-6 16-8 16s-2-2 0-5v-4l-1-2c0-2-1-1-4 1-2 3-2 3-1 5s1 2-1 2c-1-1-2-1-3-13-1-4-1-4 1-4l5 2zm-8 8c1 5 0 7-2 3 0-2-3-4-3-2l3 6c4 6 4 7 0 6h-3l-1-7c-2-5-2-7-1-9h1c1 2 3 1 3-1 1-4 3-1 3 4zm-71 0c4 4 4 6-3 6l-9 4-3 4c1 1 0 2-4 5l-4 4c-2 2-3 1-2-2 2-3 3-8 3-13 1-3 1-4 3-3h5c2 1 2 1 1-2 0-3 0-3 3-5 5-2 6-1 10 2zm-103 0 3 5c3 3 4 5 6 14a78 78 0 0 0 7 22c-4 3-14 10-16 10l-5 1h-3v-5l3-23 1 2 2 9 4 8c2 0 2 0 0-5l-2-16c-2-19-2-23-1-23l1 1zm-30 18c1 18 0 19-4 5-1-8-1-13 1-18 1-3 1-3 2-2l1 15zm-6-12-1 4c0 3-2 2-2-1-1-3 0-5 2-5l1 2zm466 1c4 2 5 2 5 4-1 3-7 8-8 6l-2-6c-2-5-2-8 0-7l5 3zm-278 2 1 4c1 2 2 4 1 6 0 4 0 4-3 3l-7-7c4-1 6-2 6-5l1-3 1 2zm-45 0c1 1-7 18-12 24-4 5-4 6-1 4l11-15 3-6c4-6 10-9 11-7s2 11 1 13v4l2 8 4 14c2 6 3 16 1 27a1002 1002 0 0 0 1 127c1 37 0 41-6 53-8 17-22 39-31 48a97 97 0 0 0-29 51c-2 5-2 6-5 6h-4c-3 1-1-20 2-22 4-3 5-3 3-5-2-1-2-1-1-5l8-15 7-12 1-15 1-23 1-19c0-11 0-12 2-12 2 1 5 0 5-2l-4-5c-3-3-4-4-2-4 3 0 3-3-1-5l-3-6c0-7-2-9-2-3l-1 4-4-2-6-2c-3 0-5-1-5-3 1-3 12-10 19-12l3-1v5l1 8v6l1 2v-21l3-1c2 0 3-1 3-2l1-4c2-1 0-4-4-6-3-1-4-3-2-5v-2c-2-3-1-6 5-12 3-3 5-6 4-7 0-2-1-1-5 2l-4 3c-2 0-1-4 2-9 4-4 4-5 4-11 0-5-1-7-2-8-3-1-1-10 7-26 4-9 7-19 4-15l-1 3c0 2-6 15-7 14l1-7 3-12 5-15c5-15 3-18-5-8-2 4-5 7-5 6-1-1 1-28 3-29l1-7c0-9 2-19 4-21 4-3 13-5 14-3zm19 1-1 1-1-1 1-1 1 1zm57 2-1 1-1-1 1-1 1 1zm-171 2 4 7 4 8c1 5 1 9-1 10-2 0-4-5-7-17-2-7-2-9-1-9l1 1zm113 0-1 2-1 1-1-2 1-2 2 1zm16 3c0 3-1 4-3 1-3-2-3-3 0-3 2 0 3 0 3 2zm32 0-1 2c-1 1-1 0-1-1l1-3 1 2zm9 0-1 1-2-2 1-1 2 2zm45 6c0 10-1 11-3 3v-8l3-3v8zm-93-3 3 4c0 2 0 2-3 0-3-1-6-5-6-6 0-2 3-1 6 2zm-166 16c2 4 3 17 2 17l-14 12c-2 3-4 2-4-2-3-14-3-12 6-31l3-10c0-5 1-4 3 3l4 11zm213-16-1 1-1-1 1-1 1 1zm-11 14c1 11 2 16 7 29 2 8 2 9-1 6-3-2-6-9-8-19-2-11-3-18-1-25 2-8 3-4 3 9zm-24-12 4 2c2 1 3 4 0 4l-8-1v-3c2-3 3-4 4-2zm33 3-1 4c-1 3-2 1-1-3 0-3 2-4 2-1zm-97 3h-4l1-2c2-1 4 0 3 2zm149-1-1 2-1-2 1-1 1 1zm-148 34c-1 13-2 17-4 22-3 9-4 17-2 20l4 3c2 0 2 0 1 2l-1 7c-2 9-8 25-17 41-2 5-4 6-5 5s-1 0-3 2c-9 11-11 15-11 16 0 4-4 8-8 8-7 0-24 10-36 21-6 5-10 5-5 1l7-14c5-10 8-15 13-21 2-1 4-6 5-9l5-13 4-17c3-11 7-22 11-24 1-1 1-1-1-1-3 0-8 4-8 6l-1 6-4 14c0 5-3 14-5 21-4 11-6 14-9 18-5 5-8 12-15 26-3 7-4 5-2-5l1-9c0-4-2 2-3 11l-3 11c-2 2-3 6-1 6 1 0 1 5-1 13-14 63-20 79-33 96-4 5-5 5-8 2l-6-5-5-3 3-9 2-6c2-10 5-17 9-18l5-4c1-2-3-9-10-16l-6-8h4l4-1-3-1c-9 0-19-25-20-53-1-6 0-7 2-8l9-1h5l-9-2h-8l1-11a87 87 0 0 1 19-45c4-3 10-6 23-11a499 499 0 0 0 57-23l-4 5-3 4 7-6c4-5 7-8 14-12a280 280 0 0 0 36-26l3-10 5-25c2-3 2 10 1 30zm106-28-1 2h-1l-1-2 1-2 2 2zm-113 1c1 1-4 8-5 9l-1 1-1 2-5 6-7 8-5 5a234 234 0 0 1-20 26c-3 4-6 5-16 10a389 389 0 0 1-60 25c-5 2-5 1 0-4 7-8 24-20 46-33l9-5 6-4 11-4c6-1 6-4 0-3-5 1-5 0-1-2l7-4 23-13v-1c0-2 1-3 7-6 3-2 5-4 6-7 2-6 5-9 6-6zm105 0-2 7-3-6c0-2 0-2 2-1h3zm40 4-2 1c-1 0-2-4 0-5 0-1 3 3 2 4zm9-3-1 2c-1 1-1 0-1-1l1-2 1 1zm-39 4h-1l-1-1c1-2 2-1 2 1zm-7 0-1 1-1-1 1-1 1 1zm49 3v3l-1-1-1-2-1-3c1-2 3-1 3 3zm19 2 2 11c0 6 0 6-2 5l-2-7c-1-5 0-14 1-14l1 5zm-97 8c2 10 2 21 1 21s-5-11-6-18c0-6 1-15 3-14l2 11zm36-5 2 6c-1 1-6-9-6-11s2 0 4 5zm-115-4-3 19c-1 3-11 12-18 17l-21 13 6-9 8-10 5-5 2-2 4-5 9-11c6-8 8-9 8-7zm110 4c2 5 2 6-1 3l-2-5c0-4 1-4 3 2zm45 2c1 4 1 7-1 7s-3-3-2-6c0-5 1-5 3-1zm196 2-1 4-4 6c-1 4-3 6-3 5-1-1 3-13 5-16 3-4 4-3 3 1zm-187 2c0 2-1 3-3 1s-1-4 1-4c1 0 2 1 2 3zm-263-1-4 4c-2 0-1-2 1-3l3-1zm184 8 1 9-4-11 1-3 2 5zm-190-3a263 263 0 0 1-35 34 233 233 0 0 1 28-31c6-4 7-5 7-3zm268 4c0 2 0 2-2 1-1-3-2-4 0-4l2 3zm-146 8-5 17-3 9-1-8c0-7 0-9 2-12 2-5 8-13 9-13l-2 7zm122 10-1 1c-2 1-3 1-3-1 0-1 4-2 4 0zm203 9c-1 2-1 4-2 3v-10l1-4 1 3-1 8zm-406-8-18 11a465 465 0 0 0-23 15c-2 0-20 16-24 22l-7 6-10 5-3 2 1-2 2-3 16-14a139 139 0 0 1 66-42zm-74 4-5 7c-5 6-5 4 0-7 1-2 6-4 7-3 1 0 0 2-2 3zm-18-1c0 4-10 10-13 8-2-1-2-1-1-3l10-5h4zm11 3h-4c0-1 2-2 3-1l1 1zm151 3-1 13-1 1c-2-2-2-8-1-12l2-6 1 4zm138 4c0 2 0 2-3-2-3-6-3-7 1-4l2 6zm-316-1 5 2c4 0 4 0 1 4l-20 41-3 20-1 12-11 25-3 7-6-2c-6-3-7-5-2-4h4l-3-2c-3-1-3-1-2-4l16-32c7-14 10-26 7-36-4-12-2-19 8-28l7-5 3 2zm16-1-3 5c-7 9-10 21-8 27 1 3 1 4-2 10l-4 9-1 1-1 1c0 5-8 19-10 19s0-17 3-26c6-19 22-47 25-47l1 1zm233 8v6c-2-1-4-12-3-13 1-3 3 0 3 7zm-232-2-9 24c-3-2 3-21 7-24l1-2 1-2v4zm308 8v2l-2-2v-2l2 2zm-64 17c0 3-2 3-4 1-3-3-6-9-6-15v-5l5 9 5 10zm10-1 2 7v4l-3-3c-3-4-5-6-5-8 0-3 4-2 6 0zm-5 6c2 3 0 4-2 2l-1-3c0-2 2-1 3 1zm-90 5c-1 1-2-1-1-2h1v2zm186-1c2 1 4 5 3 6l-7-1c-6-1-11-3-11-5s12-2 15 0zm-18 3 1 3c-1 0-5-2-4-3h3zm-338 3v4l-5 12-6 16c-3 5-4 8-3 9 0 4-2 5-3 1l2-12 4-9 1-1c-1-1 4-13 6-15l1-4c1-3 3-4 3-1zm326 1 4 2c3 2 4 2 6 1h4c3 1 3 1 2-2l1-3 10 2c9 3 11 2 10-1-1-2 2-1 9 2 7 4 17 7 22 7l3 1 7 4 8 6 8 7 6 5c0 2 9 8 15 10l10 1 8 2 3 2 5 3 6 3 1 1-1 1c-3 0-2 3 1 4l7 5 10 7 6 5 2 2 4 1 3 1c2 1 2 1 1 3-3 2-2 5 1 8l9 9 6 5v6c-1 11-2 11-5 13h-3l-1-5-1-12v-9l-1 14c0 9-1 14-2 15l-1 3c1 1 0 2-1 3l-2 5c0 3-1 4-2 4l-9-2-9-3c-2 0-2 0 0 1 1 1 6 3 10 3l7 3v4c-2 4-2 4-1 6h4c2-1 2 0 6 7 3 4 5 9 5 11 0 4 5 15 8 19s4 5 2 5c-3 0-2 2 0 2l2 3a602 602 0 0 1-13 52c0 3-1 11-6 32-2 5-1 7 1 5 2-1 4-7 5-14 0-9 2-17 3-17s1 3-1 20a345 345 0 0 0-3 31c-2 12-2 17 0 15l1-5 1-10a528 528 0 0 0 7-27l2-3a1271 1271 0 0 1 3 68c-1-11-1-12-3-12v12c0 10-1 20-3 28l1 2 3-8 2-5 2 6 1 4c2 3 4 11 4 16 0 8 2 27 4 28 2 2 3 0 2-4-1-3-1-5 1-4l5 23c2 13 3 16 5 16 1 0 3 2 5 6 1 4 5 9 9 13 4 5 6 7 6 9s0 3 4 4c5 1 8 4 8 6l4 2c6 2 13 5 19 10l9 6c3 1 8 7 7 8l-12-6-10-4 11 7 11 6-5 3-5 4-1 2c-2 0-16-11-25-20a164 164 0 0 0-33-24l-1 1 12 9 16 11c11 11 20 18 23 20 5 2 8 6 6 6a175 175 0 0 0-18 7c-5 2-6 3-9 2-5-1-7-2-11-5-4-2-4-2-3-6 0-4 0-5-5-10l-9-12c-4-6-5-6-8-7-2 0-5-1-9-4l-5-3c-1 1 11 11 13 11l5 6 5 5-2 3c-4 3-4 7-1 9l4 1c3-1 3 1 0 4-2 2-2 5 0 5l3-3c3-5 4-5 4-1-1 2-1 3 1 3 3 1 2 3-3 5-3 0-8 3-12 5-8 5-11 5-13 3s-1-4 1-6c6-5 10-9 10-11 0-3-2-2-5 0l-3 2c-2 0-13-8-13-9l2-5c2-5 1-7-2-2l-3 4-5-10 2 1h3l6-4c6-3 6-2-2-7l-5-6c-3-5-4-6-11-10l-6-5v-7c0-5 0-5-1-4l-2 4c0 5-5 0-9-8-3-4-3-15-1-20l8-9 6 8c5 8 7 9 6 4l1-4 7 6 6 5 4 6 16 25 9 12c8 12 12 15 12 10 0-2-2-3-4-3-1 0-18-23-26-36-6-10-8-15-5-15l1-1-3-1-5-2c-2-3-2-4-1-5l-1-1-5-6c-2-5-3-6-7-7s-5-2-8-9l-7-12c-3-2-4-4-6-9l-2-9-3-3-2-2 6-12 1-1c-1-2-4 0-6 4l-3 3a67 67 0 0 1-10-24l-8-23 6 5 7 6 3 5 7 11c3 2 5 5 5 6l1 1c3 0 2-2-4-8-5-6-6-8-4-8l2 1 4 3c5 3 5 2 1-3-5-5-9-11-9-14 0-4 0-4-6-7l-8-6a82 82 0 0 1-10-20l-10-30 5 8 7 13 10 23 2 3c3 0 2-3-1-9-2-5-3-6-2-8 1-1 1-2-1-5l-3-5c0-3-2-4-4-3-1 1-2 0-13-24l-3-5c-4-4-6-15-10-45v-45l-2 7c-1 7-1 22 2 43 2 17 1 20-2 10-4-10-8-26-10-40v-20l4-14c3-6 6-6 8 0s4 8 6 8 2 0 0-3c-3-2-5-7-5-10h2l3 1-2-2c-2-1-3-2-3-5s1-4 2-5l3-2s2 3 2 7c3 10 9 22 15 29l7 5-4-5c-8-9-16-27-16-38 0-4 0-5 2-5 3 0 4 3 6 9l1 6v-6c-1-6-1-7-4-9l-3-5c0-3-3-6-5-6-2 1-8 16-8 18l-3 1c-2-1-4 0-5 1-1 2-4 1-4-2l3-6c4-4 4-6 1-4l-5 2-3 3c-1 2-2 3-8 5-7 2-19 3-21 2l2-1c3 0 13-4 19-7l3-3c0-2 1-3 4-3 7-1 12-3 13-6 1-5 0-5-14-4-14 0-25-1-30-3l-2-2h3l14-2 10-1h-21c-9 1-11 0-7-1 2-1 2-1 1-2l-7 2c-8 3-11 2-13-1-1-3-6-5-6-3l6 9c2 2 2 2 1 3-2 2-2 2 0 3l2 2 5 3c4 4 3 5-3 4-3 0-3 0-2 1 1 2 6 3 9 1 3-1 2-4-1-6-2-2-4-6-2-6l21 9c1 0-2 3-6 5l-8 4c-1 2-6 3-10 4a706 706 0 0 0-11 1l-7-22a441 441 0 0 1-15-47 149 149 0 0 1-13-35c-2-6-2-9-2-23-1-13 0-17 1-16l1 1zm164 1c0 4-1 7-2 6s0-9 1-9l1 3zm-461-2-3 6c-6 9-9 17-11 28l-3 17c0 5 0 6-3 9-6 7-6 19-1 31 4 9 14 24 24 35 11 12 14 20 8 20-3 0-6 5-9 13l-3 7c-3 0-10-11-10-14l-1-3-2-4c0-2 0-3 4-4l6-1c1 1 2-2 1-3l-2-1c-3 0-6-2-13-9l-6-8c1-1 0-3-1-4-2-2-5-10-6-21-2-10-4-16-8-22-2-2-3-5-3-7 0-6 2-16 4-21l3-8 5-9 3-6c0-1 8-11 9-10l5-3c5-5 13-9 13-8zm357 3c7 1 14 4 12 5l-20-4c-3-1-4-4-1-3l9 2zm-220 7-1 4c-1 1-2-4-1-6 1-3 2-2 2 2zm290-3c-1 2-6 3-6 1 0-1 2-2 5-2 2 0 2 0 1 1zm13 1c-1 2-12 9-17 11-6 2-11 1-16-3l-2-2 4-2 13-1c8 0 10 0 13-2s5-2 5-1zm11 1c0 2-1 3-2 1l1-3 1 2zm-4 3 2 2-2 8c-3 8-5 10-6 6-1-3-3-3-9 2-8 7-11 7-19 3-7-3-7-4-7-8l-3-6c-2 0-3-3-1-4l2 1 6 4c6 3 7 3 12 2 6 0 7-1 14-6l9-6 2 2zm11 3c-1 3-3 4-3 3l3-6v3zm-327 2-3 2 1-4 3-2-1 4zm269-2-1 1-2-1 2-1 1 1zm53 3c-2 3-4 5-4 3l4-7v4zm-317 4-4 5a148 148 0 0 1-19 16l2-2c0-2 7-11 11-16l5-6c1-2 1-2 3-1s2 3 2 4zm256-4 3 3-1 2-6-5h4zm10 5 1 3c-1 2-1 2-3 0-4-2-4-5-1-5l3 2zm-273 13c-7 8-10 10-11 9l18-18-7 9zm310-4c-1 3-9 5-9 3l4-4c3-3 3-3 5-2v3zm-26 3 8 5-4 1c-6 0-19-7-17-10 0-2 4 0 13 4zm-276-1-1 1h-1l1-1h1zm-187 5-3 12c-3 10-3 13-1 13 2-1 3-3 4-9 0-8 1-9 4-7 2 2 2 3 2 10l-1 8h-4c-3 0-6 0-9 2l-6 1c-1-1 4-15 9-25 3-8 6-10 5-5zm187 6c1 1 0 2-2 2-4 1-4 0-2-2 2-3 4-3 4 0zm4 0-1 1v-1l1-1v1zm-29 8-3 3 3-6c3-2 2 1 0 3zm14 2c-3 3-6 3-4 1l4-2c2 0 2 0 0 2zm-35 4-2 1c-2 0-3-2 0-2l2-1v2zm-175 2c2 1 2 3 2 9l1 8v3a325 325 0 0 0-49 31l7-17c4-9 7-17 6-19s6-7 21-13c8-3 10-4 12-2zm67 9a122 122 0 0 0 9 38c3 8-9-12-12-21-2-5-2-8-2-13 1-6 2-12 4-12l1 8zm117-6-11 14a502 502 0 0 0-28 37c-1 0-2-5-2-13s2-11 2-4l2 5v-5c0-5 0-5 1-4 1 2 3 2 5 1l5-2c1-1 1-1-1-1l-4 2c-2 1-1-2 2-7l20-19c5-4 9-6 9-4zm-174 3 5 3c1 1-6 7-8 7-1 0-2-1-2-4v-9l5 3zm157-1-2 2c-3 1-4 0-1-2h3zm21 2-2 4c-3 5 0 4 4 0l5-4v2c-2 1 0 3 6 7 4 2 5 5 2 7v1l4 2 6 5 5 2v16a323 323 0 0 1-3 42c0 11-2 17-5 21-3 2-9 14-10 19-2 5-3 6-10 6-4 0-5 0-5-2-1-3-5-4-11-3-4 1-4 1-6-1l-4-4c0-3-3-2-3 1s-1 3-5-3c-4-7-4-9-2-25 3-12 3-16 3-26l-2-13c-1-3-2-2-1 2v9c-1-1-1 0-1 3 0 9-3 5-6-8-2-10-2-10 1-14l8-11c9-14 29-37 31-37l1 2zm-150 2c1 0 2 1 2 3l3 16 1 1-1-8c-1-8 0-11 2-6l2 6 4 16 4 16c2 3 2 4 0 7s-2 4-1 6l1 4c0 3 0 3-7 3a808 808 0 0 1-50-6c0-3 6-5 9-5 2 1 3-1 0-2-4-1-9 1-14 7-1 1-2 2-4 1l-13 1c-13 1-18 4-24 11-4 5-4 5-6 3-2-3-2-11 1-17 3-7 9-13 17-19a518 518 0 0 1 55-33c2 2 2 12 0 19-2 6-7 15-9 16v1l3-1 8-19c2-6 2-15 1-15-2-2-1-4 4-5 5-2 8-2 12-1zm123 8a104 104 0 0 0-12 12c-2-1 5-11 12-17 9-7 9-5 0 5zm-13-1c-6 10-8 21-7 34l1 8-3 7c-4 8-6 17-6 22 1 2 1 2 1-1 0-7 5-23 8-24l3 8c1 7 3 10 5 12s2 2 3 0c2-2 2-2 2 0 0 6-3 18-4 19l-1 1c0 1-2 4-5 6-4 5-4 6-4 10 1 4 1 5-5 16l-7 12 2 1v-2l1-1 4-7 5-10c3-5 3-5 5-3v9c-3 11-5 15-7 15-6-3-7-1-2 2 2 0 3 1 3 2 0 2-8 16-12 20-17 22-21 25-27 25h-3l3-4 3-4c7-10 9-12 11-12 2 1 2 1 2-1-1-1 0-2 1-3v-2c-2 0-8 6-15 16-5 7-5 7-11 11-7 5-12 6-42 8-18 1-19 1-23-1l-5-3-2-2-3-1 3-1 6-5 8-5c7-2 27-9 34-13 7-3 14-10 17-16l6-15 2-5c1-2 2-2 2 1l2 3c2 0 2 0 2-5-1-5-1-6 2-8 10-13 20-35 27-64l2-10a547 547 0 0 0 8-34c0-3 1-4 3-5l5-2 3-2c1 0 1 1-1 3zm4 0-1 1v-1l1-1v1zm-190 9a162 162 0 0 1-8 19 366 366 0 0 1-19 41l-1 2-3-2c-7-10-4-29 9-45l16-18 6-5c3-3 3 1 0 7zm252-8-1 1-1-1v-1l1 1zm-1 6 4 4c0 3-1 3-5-1l-4-4c0-3 1-3 5 0zm10 6v3l-3-2v-2l3 1zm87 3 4 7c2 4 2 5 1 6-2 3-4 1-6-7l-2-7 3 1zm-9 10 3 2-2 3-3 5c-1 3-4 4-4 2-1-6 1-14 3-14l3 2zm20 7c1 3 0 5-3 3-2-1-3-4-1-5 1-2 2-1 4 2zm-10 4c6 7 8 13 8 17v4c-1 1-5-3-7-7l-7-8c-4-4-5-5-1-5 2 0 3-1 2-4 0-3 0-3 2-1l3 4zm130 3 8 3h3l-3 2c-1 1-3 2-4 1l-13-5c-3-1-5-2-4-3 1-2 6-1 13 2zm-137 4c0 1-2 2-5 2-2-1-1-3 2-3l3 1zm161 2-3 1-6 1h-4c-2-1 0-2 7-3l6-1v2zm18 1-2 1c-2 0-2 0-1-1 1-2 3-2 3 0zm-421 1-1 1-2-1 1-1 2 1zm414 2h-7c0-1 2-2 6-2h4l-3 2zm-167 2h-3c-3-2-2-3 1-2l2 2zm-245 0c1-1 7 5 6 5h-6c-6 0-6 0-6-3s1-4 3-3l3 1zm401 1c6 0-2 6-9 7-8 2-11 2-11 1l6-5 8-4 6 1zm-473 6 2 8 3 6h-2c-3 0-5 2-3 3l6 1 5 1-2 1-2 1c0 3 5 6 11 7l14 5c11 5 19 7 20 6s-1-5-4-7l-1-3 6-2 5-3 2 2 4 7c0 2 2 4 3 5 3 0 7-2 7-5 1-2 1-2 4 3 1 3 4 6 6 7 2 3 2 3 1 7l-3 6c-2 1-16-5-19-8-4-5-26-6-41-3l-10 1c-7 0-9 1-5 3 2 1 25 3 42 3 4 0 2 2-5 4l-35 9-43 6-34 3-2-3c0-4 4-15 6-17l3-6 5-10 4-7c3-7 5-9 7-8h14c4-1 2-2-5-2-9-1-10-2-7-6l3-4c0-3 9-12 13-13 6-1 19-3 24-2 3 0 4 0 3 4zm40-1 22 2c1 0 1 1-1 4-1 3-3 4-5 4-5 1-9-1-9-4 1-2-1-3-2-2s-2 2-1 4c0 2 0 2-3 2-3-1-17 1-27 3h-6c-2-2-5-9-5-13v-3h8l29 3zm38 2c6 0 7 2 1 2l-5 1c0 1-2 1-4-1-5-3-3-4 8-2zm426 3c-1 1-2-1-1-2h1v2zm-554 2 2 4c2 3 2 3 1 5-2 4-3 4-6 1-3-2-3-3 0-9 2-3 3-4 3-1zm117 0-1 1-1-1 1-1 1 1zm416 4a326 326 0 0 0-4 44 169 169 0 0 0 0 41l-4-5a345 345 0 0 0-26-32l3-1c3 0 9-3 14-8l7-7c3-1 4-3 1-3l-8 7-9 7 2-5a108 108 0 0 0 11-35c0-2 8-6 11-6 2 0 2 0 2 3zm-408 2c0 3-1 2-2-2v-1l2 3zm-5-1c0 2-1 2-2 2-3 0-4-2-2-3s4 0 4 1zm383 0-3 3-7 9-6 5c-2 0-7-7-8-10 0-2-1-3-2-3l-2-2c0-2 2-2 14-3l14 1zm-414 0-11 2c-4 0-4 0 2-1 3-1 6-2 7-1h2zm420 4c-1 4-9 16-12 17v2c2 0 11-10 14-15 2-4 5-7 6-7 2 2-3 22-8 30l-4 6c-2 2-2 2-7-3l-7-9c-1-3-1-3 7-12a76 76 0 0 0 9-13c2-2 3 1 2 4zm29-4-1 4c-2 2-2 2-2 0l2-5 1 1zm7 1v2l-4-3c0-2 3-1 4 1zm75 1-1 1-1-1 1-1 1 1zm8 0-1 1-1-1 1-1 1 1zm-525 5 3 4-2 1-7 3c-4 1-6 1-12-1l-11-3c-5 0-10-3-9-4l14-2a146 146 0 0 0 18-3c2 0 3 1 6 5zm4-2 2 3-6-5c0-2 2-1 4 2zm5 0h-1l-2-2h2l1 2zm10 6v7l-2 3c-1 2-1 2-3-1l-2-9v-6h3c3 1 4 1 4 6zm420-5-5 15 1-13c1-3 2-4 4-2zm-66 5 3 8 2 4-4 4-5 5-1 2v-8a479 479 0 0 0 3-20c1 0 2 2 2 5zm-347-2 6 8c5 5 5 6 4 9-1 6-2 7-5 3-5-5-9-22-6-22l1 2zm-61 5c-1 1-3 0-3-1h3v1zm13 1 3 2c0 1-7 0-8-2h5zm16 8h-5c-4-1-5-3-2-3 2-1 6 1 7 3zm441 42a794 794 0 0 0 4 41c-1-1-3-2-4-1-1 0-3-1-6-5-5-6-5-7-1-4l3 2v-5c-5-19-5-35-1-70l2 12 3 30zm-332-39-1 3c-1 2-2 2-2 1 0-3 1-5 2-5l1 1zm282 2-1 1-1-2 1-1 1 2zm10 9c5 5 5 5 3 5-3 0-10-7-10-9 0-3 1-2 7 3zm-18 2c0 3 1 6 4 11a749 749 0 0 1 44 58c2-1 3 1 9 11 9 16 12 20 15 20 2 0 3 1 7 12l4 12-3-2-7-5c-6-3-16-11-16-14-2-6-18-24-25-29-6-4-18-19-18-23 0-2 0-2 3 1 3 4 8 7 9 6l-10-15-5-12-3-10-10-10c-8-8-10-10-9-12 0-1 1-2 3-2l4-1c3-2 4-1 4 4zm-374-3c7 2 5 3-4 3-24-2-26-2-24-3h28zm38 4 6 4c3 2 2 5 0 5s-3 1-3 3c0 3-16 19-24 24-9 6-23 13-26 12l-2 1c0 1-7 4-11 4h-3l2-2 10-4c21-7 29-13 39-35l7-14 5 2zm68 1c3 5 5 7 8 7 4-1 5 1 4 5-1 2-1 3 1 6 3 4 5 4 17 3 8-1 9-1 10-4 1-5 2-3 1 2 0 7-1 7-4 5l-3-2c-2 0-1 2 2 3 3 2 5 7 3 10-1 2-2 2-4 2-15-3-17-3-20-2s-6 0-10-6c-4-3-8-13-7-15h6c5 0 5 0 4-1l-8-2h-6l1-6c0-9 2-10 5-5zm281 6-1 1-1-1v-1l1 1zm-363 4-10 18h-9l-15-1-9-1-1-2c3-2 28-12 38-14h6zm376 7c7 8 18 22 21 28a805 805 0 0 1-28-35l7 7zm-273-3c2 1-3 3-5 2v-3c0-1 4-1 5 1zm-27 3 2 3-2 1c-3 0-3 0-2-4 0-2 2-3 2 0zm4 7 3 5c4 5 2 5-4 0l-6-4-1-1c0-3 7-2 8 0zm295 5 3 4c4 6 5 9 4 9l-4-5-3-6-5-8 3 2 2 3zm138 8c-1 1-2-1-1-3h1v3zm-99 1 4 13a76 76 0 0 1 5 15l4 11 11 33c5 14 7 25 3 20l-9-19 4 5c6 7 5 3-2-6l-8-16-2-9c0-2-3-10-5-11-2-2-6-23-7-36-1-4 1-4 2 0zm-305 0-4 1-5-1c-1-1 1-1 4-1l5 1zm149 1 2 2-7 1c-8-1-10-2-8-3h13zm253 7 2 18c2 9 2 20 0 20l-1-10-2-11c-1 0-2 3-2 7l-1 3-1-4-2-6c-2-1-2-1 0-7 3-12 5-17 6-17l1 7zm-98 22 1 3-4-3v-2l3 2zm-180 3c6 0 7 2 2 2l-10 2h-8l1-1 3-2c2-2 5-2 12-1zm276 15-2 5-2 3v-7c1-9 2-11 3-7l1 6zm-119 3c3 1 10 10 10 12l1 1 11 9 18 16c7 5 10 9 9 10-1 0-10-6-11-8 0-1-8-5-9-4l-3-2-5-4-5-5-1-1c0 2-3 1-11-7-8-7-9-9-10-12-1-7 1-8 6-5zm-79 10 7 7c2 3 0 4-2 1l-7-6-6-6c0-2 2-1 8 4zm264 13a423 423 0 0 1-19 39l9-26c4-7 10-15 10-13zm-59 20-1 4-1-5 1-3 1 4zm-384-1 1 3h-1c-2-3-2-5-1-5l1 2zm317 3 1 5c0 1-4-3-4-6-1-4 0-4 3 1zm-310 6h-1l1-2v2zm319 10v1l-1-1v-1l1 1zm63 10 1 33-2-14c-2-18-3-28-1-28l2 9zm-52 0c0 1-1 1-2-1-4-4-4-6 0-3l2 4zm-534 5 6 6 3 4 7 10 6 10c3 3 10 15 12 21 3 8 4 11 3 18-2 7-7 19-9 19l-2-8c-1-9-8-37-11-45-5-13-11-24-18-33-2-2-3-5-2-5l5 3zm622 15a140 140 0 0 0 9 22c0 1-8 0-11-2-6-4-8-11-5-24 2-12 2-13 3-9l4 13zm-102-7c2 4 2 6 0 4s-4-7-3-7 2 1 2 3zm3 8-1 1-1-2h1l1 1zm123 5c0 3-9 15-11 13l5-13c2-3 5-4 6 0zm-51 6c14 36 18 59 8 40-9-17-10-21-7-19 4 1 1-7-4-12l-1-6-1-8c-1-6 2-3 5 5zm-62 20-1 6c-3 6-4 11-2 15 2 5 2 7 0 4s-4-14-4-18l3-6 3-3 1 2zm122 3-4 13h-2l-2-3-3-6c-2-3-2-4 0-4h6l4-1 1 1zm-59 9 3 9c0 4 2 8 6 13 2 3 3 5 3 8l1 8 1 6c-1 4-9-15-14-35a255 255 0 0 0-3-15l3 6zm-62 7c0 1 0 2-1 1-1 0-1-8 1-10v9zm7-4 5 10 3 6-3 5-4 4-3-7a42 42 0 0 1-1-22l3 4zm115 13c3 4 4 4 2 4s-6-3-7-6c0-3 1-2 5 2zm-51-1 3 3v4l-6-8c0-2 2-1 3 1zm-52 4 1 4-4-7c0-2 1-1 3 3zm-152 5 22 13a313 313 0 0 0 53 26l7 4c9 5 16 12 17 17 1 4 1 22-1 30l1 10c2 11 9 16 32 26 14 5 17 7 22 14 3 4 4 7 5 15 7 37 6 49-1 56l-16 4c-13 2-15 2-23 1l-26-6-15-9v-7l-1-9c-2-7-11-13-22-16-10-3-45-20-57-29-9-6-23-19-26-23l-7-12-7-10-6-7-6-9c-2-2-2-5-2-13-1-10-2-14-8-28-2-5-2-6-1-10 2-9 20-21 40-27 14-5 16-5 26-1zm164 1h-2v-3l2 3zm-540 22-1 16-1 24c-2 25-4 34-7 34l-6 1c-5 0-5 0-8-3-5-5-10-5-20-1l-8 3-13-1c-13-1-19-2-24-4-3-1-4-3-2-3a156 156 0 0 0 22-15l6-4 10-7a150 150 0 0 0 20-16 284 284 0 0 0 33-32l-1 8zm593-6 1 4h-1c-2-3-3-6-1-6l1 2zm-78 14c0 3 1 7 6 15l7 13 7 9 7 9c3 7 3 7 1 7l-6 2-5 2-4-3c-3-2-4-7-2-10a1023 1023 0 0 1-12-47l1 3zm82 4c0 1-1 1-2-1l-2-4c0-2 0-2 2 1l2 4zm-118-1a260 260 0 0 1 26 34c0 2-3 1-6-2l-7-5-8-11-7-14c-3-6-3-7 2-2zm161 15 14 2c12 1 14 2 19 6 3 3 15 9 17 9l4 3c4 3 6 8 8 18v3l-2-3-6-4-6-4c-1-2-6-3-9-3-4-1-10-3-20-9l-15-6c-4 0-4 0-8-8-5-8-5-10-2-7l6 3zm-124 2c-1 2-3-2-3-4s0-2 2 0l1 4zm16-2c2 2 6 16 5 17-2 1-6-6-12-18 0-2 5 0 7 1zm7 4c2 1 13 14 13 16l-3 1c-4 3-9 0-10-6l-3-8c-2-6-1-6 3-3zm-19 8v3c0 1-3-3-3-5s2-1 3 2zm-378 3 17 3a241 241 0 0 0 28 4l12 2c21 2 26 3 41 7a777 777 0 0 0 69 17l4 1v11c1 13 3 21 7 31a105 105 0 0 0 27 32l-8 2a211 211 0 0 0-28 6 380 380 0 0 0-29 7c-6 1-22 0-25-2l-8-4-14-9-10-9c-5-4-18-10-32-14a364 364 0 0 1-29-9c-13-4-12-3-32-11-16-7-19-8-45-12l-6-2-9-1-18-4a521 521 0 0 0-57-10l6-2a106 106 0 0 0 25-8l11-4c26-13 30-14 50-20 19-5 18-5 30-5l23 2zm498 0c1 2 1 2-1 2l-2-1v-1c0-3 2-2 3 0zm5 1-1 1-1-1 1-1 1 1zm-149 3-1 1-1-2h1l1 1zm161 0c4 3 7 5 5 5l-13-6c0-2 2-1 8 1zm7 8c13 4 18 7 22 11l8 7c5 2 6 4 3 4l-5-2-10-3-10-3c-4-4-13-9-15-9-1 0-8-6-8-8 0-1 6 0 15 3zm40-1c8 7 8 7 26 16 11 5 13 7 16 10l6 6c3 1 4 3 2 4l-1 2c0 4-9 4-15 0-4-3-9-5-14-5-3 0-9-4-8-5h6c6 0 7 0 7-4 1-3 1-3-4-3l-12-3c-5-2-6-3-8-6-3-5-5-14-4-14l3 2zm15 2 13 4 10 4c4 0 16 17 14 19-1 2-5 0-9-5-2-3-5-5-13-9l-14-6c-5-2-12-8-12-9s5-1 11 2zm-206 0h-1l1-2v2zm71 5c2 2 2 3 0 4-3 2-5 1-5-1s2-5 3-5l2 2zm-263 2 3 5 6 8 6 8-3-1-9-5c-8-3-8-3-9-5l3-13 3 3zm334 2c3 5 3 5-1 5-3 0-4 0-3-2l-2-2-2-2c0-2 5-1 8 1zm14 5c0 2-5 0-8-3l-1-3c0-1 9 4 9 6zm-121 0v5l-4-1c-8-1-10-4-3-6l4-2c2-2 3-1 3 4zm101-1-4 2c-4 0-4 0-4-2s0-2 4-2l4 2zm50 1c3 2 1 4-2 2l-3-3c0-1 2-1 5 1zm-139 5 3 2-3 2c-1 3-2 3-5 3-2-1-2-1-2-4v-4c-1 0-2-1-2-3v-2l3 2 6 4zm147-1h-4l-1-2c1-2 1-2 3 0l2 2zm55-2c3 2 4 6 2 6-1 0-6-5-6-7 0-1 1-1 4 1zm-112 0v2l-1-1c0-2 1-3 1-1zm9 1-2 1-3-1 1-1c1-1 5 0 4 1zm14 1 11 2c4 0 8 0 10 2 4 1 5 2 7 6 0 2 0 2 1 1 0-2 1-2 3-2l6 1 8 4 9 2c5 0 9 3 7 5-3 2-5 1-12-2l-9-4-4-1c-4 0-4 1-1 4v4l-2-1c-1-3-7-7-10-7-1 0-1 1 1 3l3 4c-1 0-6-3-7-5 0-3-7-6-19-11l-11-6c0-2 6-1 9 1zm-701 2c2 2 1 2-7 1-6-1-7-1-3-2s9-1 10 1zm554-1 2 3c-1 1-3 1-4-2-1-2 0-3 2-1zm110 2c2 3 0 4-6 2l-5-2 4-1c5-2 5-2 7 1zm-313 3a54 54 0 0 1 23 20l4 7a231 231 0 0 0 13 23l7 11 6 8-4 1h-13l-8 1-5-4c-8-6-19-19-24-29-4-8-7-21-7-32v-8l3 1 5 1zm346-1-1 1-1-1 2-1v1zm-697 2 12 1h4l-2 3-13 6a186 186 0 0 0-36 23l-12 9-15 11c-4 3-17 10-24 12-3 1-3 1-5-1l-2-5c0-3 1-6 7-12l3-4 1-1 4-5a94 94 0 0 1 26-20 335 335 0 0 1 29-17c4-2 8-2 23 0zm742-1c1 1-1 2-2 2-1-1 0-3 1-3l1 1zm-184 18c3 5 2 7-2 3-4-5-5-7-4-9v-6c1-1 2 0 2 4l4 8zm179 6c4 1 4 3-1 3-3-1-7-3-7-5 0-1 2-1 8 2zm-349 7a239 239 0 0 0 67 38c15 6 16 7 20 11 3 3 3 4 3 11l-1 7-4-2c-4-2-22-13-30-16-6-3-26-10-32-10-3 0-4-1-12-13a263 263 0 0 1-16-30l5 4zm28 53c6 5 11 11 10 11-1 3-11-1-19-7l-12-8-9-6 10-1h10l10 10zm-510-9H9v-1l2 1zm15 2v4c-1 4-4 6-5 4l-1-5c0-4 0-4 2-4l4 1zm-9 27v9H9c-1 2-2 1-2-1s6-8 8-8l1-2c1-2 1-2 2 0l-1 2zm-10 0c0 1-2 0-2-2h1c1 0 2 1 1 2zm106 6c1 1 0 1-2 2l-12 3c-10 3-13 4-9 2a422 422 0 0 1 23-7zm541 8c-2 1-12 3-14 2l12-3c3 0 3 0 2 1zm-638 1c0 3-2 4-6 4s-5-1-4-3l10-1z"/><path d="m203 277-1 1 3-1v-2l-2 2zm297 142 1 3 1 5c-1 2 1 5 2 4 2-1 1-8-1-11-2-2-2-2-3-1zM318 657l-1 2 1-1v-1zm-70-79 1 1 1-1-1-1-1 1zm-42 50c-3 2-2 3 1 2l2-2h-3zm17 87 1 1 1-1-1-1-1 1zm277-98 2 2c1 1 1 1 0 0l-2-2zm174 90c0 3 1 4 2 2 1-1 0-5-1-5l-1 3zm21 337c-1 1 2 10 6 15 5 5 8 7 9 6l-4-5c-5-4-7-7-8-11l-3-5zM262 716l1 1 1-2h-1l-1 1zm-195-5 1 1c1-1 1-2-1-2l-1 1zm39 1 1 1 1-2h-1l-1 1zm71 119 1 1 1-1-1-1-1 1zM65 750l1 1c1-1 1-2-1-2l-1 1zm-3 38 1 1 1-1-2-1v1zm80-36 1 1 2-1-1-1-2 1zm38 40h2l-2-1v1zm394 94 2 4 1 1c0-3-3-7-3-5zM129 989l1 2 1-1-1-1h-1zm-4 82v1l1-1v-1l-2 1zm-44 41 1 1 1-1-1-1-1 1zm41 1 1 1 1-1-2-1v1zm80 2c-1 1 0 1 1 1l1-1-1-1-1 1zm40 1c-1 2 0 3 1 1v-1h-2zm40 1v2l1-1c0-2-1-3-1-1zm40 2c-1 1 0 1 1 1l1-1-1-1-1 1zm40 1v1l1-1v-1l-1 1zm40 1v1l1-1v-1l-1 1zm-122 38c-1 2 0 3 1 1v-1h-1zm40 2 1 1 1-1-1-1-1 1zm40 1h1l1-1c-1-1-2-1-2 1zm40 1 1 1 1-1-1-1-1 1zm41 1v1l1-1v-1l-1 1zm-42 41v1l2-1-1-1-1 1zm40 2 1 1 1-1-1-1-1 1zm-361-53 1 1 1-1-1-2-1 2zm-64 86-1 1h1l1-1h-1zM389 122c-5 1-7 2-8 4-2 2-1 4 1 1 1-2 4-3 11-5l6-2-10 2zM37 132c-6 2-6 2-4 4h2c2-3 6-3 7-1l-2 4c-3 2-3 4 0 2 1-2 2-1 3 2v3l2 1 1-3v-7l-2-4c0-3-1-4-7-1zm285 9c-11 6-19 12-16 12l4-3 12-7c11-6 14-8 12-8l-12 6zm600 6c-3 0-1 2 2 2l3-1c0-2-2-2-5-1zm-73 20-4 7c-2 3-2 5-1 6l3-5 5-8 2-2 3 2c4 4 3 6-2 5-4 0-4 1 1 3 4 1 7 0 7-3 0-2-7-9-9-9l-5 4zM28 216l1 11 1 9c2 0 2-1 2-3v-4l4 2c6 2 10 1 11-1 2-3 3-11 2-11-1-1-3 1-3 6 0 3-1 4-3 4l-11-4-1-5c0-3-1-6-3-6v2zm820 26 4 9 3 9c0 6 2 5 2-2l2-7v-1h-2l-1 2c-1 0-5-9-4-10l-3-4-1 4zm-597 33a289 289 0 0 1-42 29c-8 4-32 20-31 21l13-7 19-13 27-18c10-8 16-11 20-11h2c-1-2-6-2-8-1zM27 309c-3 5-5 13-6 20l1 8c1 0 2-1 2-4l3-8c2-4 2-4 6-4 5 0 6-2 2-4l-2-4c1-1-2-6-4-6l-2 2zm3 4c0 3-4 8-4 6 0-3 2-8 3-8l1 2zm355-5-10 1-5 1c0 1 8 1 19-1 6-1 7 1 4 7-4 8-5 28-1 21l1-8c0-5 1-8 3-12l2-6c0-4-4-5-13-3zm-19 12c-4 4-3 5 1 1 3-4 4-4 2-4l-3 3zm-150 21-5 1-17 8-13 6v3c1 3 1 3 5 3h4l-3 3-4 3-1 4-2 3-9-4-10-4-7-3c-4-2-6-2-21-2a148 148 0 0 0-33 3c-4 0-7 2-7 4l-1 3c-2 2-2 2 0 3h3c3-3 6-4 14-7 10-3 12-3 16 1s4 4 8 2c7-3 28-2 30 2l6 3c3 1 7 3 13 8h4c1-3 3-2 4 0s2 2 4 1 3 0 13 10c13 12 20 16 27 16 7-1 8-3 1-3h-4l-3-9c-5-13-6-19-6-22 1-1 1-1 2 1l1 6c0 4 4 10 11 13 7 4 10 7 12 11 1 3 1 3 2 1 0-3-4-8-8-11-5-2-10-7-12-11-2-3-2-4 0-9 2-6 4-7 5 0 0 4 1 5 5 9l8 5 6 3c3 3 8 5 9 3 2-2 6-1 7 1 1 1 1 1 3-1l4-3 2-1c1-1 3-1 4 3 1 3 3 3 3 0s-5-9-11-13c-7-4-10-9-7-13 2-3 2-5 1-5-2 0-6 7-6 9 0 3 3 8 6 11l3 3c0 3-4 5-9 6s-5 1-8-1l-5-4c-8-2-10-4-12-12-3-10-4-12-5-12l-4 8-2 2c-1 0-1-5 1-20 1-8 1-10-2-9l-1 6-2 11c-2 5-2 9-2 15l-1 9-3-3-5-4c-3-3-4-7-3-15 1-5 2-7 6-12 6-7 8-11 8-13h-7zm3 3c-2 2-7 4-11 4-4-1-3-2 4-4h7zm-15 12c0 1-5 4-6 3l2-2c2-2 4-3 4-1zm5 0-1 4-2 10c-1 6 0 8 1 9 3 2 0 2-7 2-6 0-7-1-11-4l-4-5 11-8 13-8zm-78 12h-5c0-1 1-2 3-1l2 1zm78 16c2 0 5 1 8 4 4 4 4 5 4 9 0 3 0 4 3 6l3 3c-2 2-9-4-19-13l-10-10h4l7 1zm656-27c-2 5-2 8 0 10l2 2v-2l-1-10c1-4-1-4-2 0zm-531 27c0 1 0 2 1 1v-3c-1-1-1 0-1 1zm1 6c0 1 0 2 1 1v-3c-1-1-1 0-1 1zm-322 6-7 2c-2 0-3 1-3 2 0 2 7 1 11-2 4-1 5-1 8 1 2 2 4 2 8 2h4v6c-1 3 0 5 1 7v-2c-1-5 1-5 4 1a93 93 0 0 0 32 27c4 2 8 4 9 6 2 1 5 3 8 3l10 4c10 5 23 8 34 9h13c2-1 5-1 19 2a226 226 0 0 0 27 4c-17-3-33-6-45-10l-19-4-7-3c-8-3-18-5-25-6-7 0-10-1-15-3-7-4-8-5-6-8 5-5 3-14-3-18l-10-3c-9-2-15-4-15-7l-3-2c-2 0-2 0 1 6 2 5 2 7 0 5l-7-14 3-1c4 0 4-3 1-3-4 0-4 0-7-2-2-1-3 0-2 2 1 3-7 2-10-1-2-2-4-2-9 0zm48 19c7 1 10 3 13 6 2 4 1 9-2 13-2 2-2 2-6 0-5-2-13-11-16-17s-3-6 2-5l9 3zm46 34c3 1-4 1-8-1l-4-1h5l7 2zm8 4 21 5c6 2 5 3-2 2-11-1-29-5-29-7l2-1 8 1zm14-45 21 12c3 0 2-2 0-3a141 141 0 0 0-18-9c-1-1-3-2-3 0zm125 3 2 2h1l-1-2h-2zm600 25c0 3 5 12 6 12 1 1 2 0 2-3l1-5 2-2c3-3 4-4 1-4-2 0-4 2-5 6l-1 3c-1 1-4-4-4-7l-1-2-1 2zm17 7c4 5 7 7 10 6l2-4c0-2 0-2-1-1l-2 3c0 2-3 0-6-4-4-5-6-5-3 0zm-317 6h1v-2l-1 2zm1 4h1v-2l-1 2zm85 2 2 2c2 1 2 1 1-1l-3-1zm-78 31c0 1 0 2 1 1v-3c-1-1-1 0-1 1zm1 6c0 1 0 2 1 1v-3c-1-1-1 0-1 1zm1 6c0 1 0 2 1 1v-2c-1-1-1 0-1 1zm2 10h1v-2l-1 2zM5 519l1 1v-1l-1-1v1zm567 8 1 1c1 1 1 0 0 0 0-2-1-2-1-1zm300 13c-1 7-1 12 1 15l2 3 2 1c2 2 2 2 1 4-2 2-1 3 2 2l4-1c3 0 2-1-3-4-6-3-8-6-8-12l1-9c2-3 2-4 0-4l-2 5zm-288 12 2 4c3 3 3 2 0-2l-2-3zM3 556v1l1-1v-1l-1 1zm586 4 6 8-2-4c-4-6-4-6-4-4zm226 12c0 5 13 39 18 47l10 22c4 10 5 32 1 32l-1 1h1c2 0 2 0 2 6l-2 15v48a94 94 0 0 0 16 39l-3-6c-3-3-8-16-10-24a213 213 0 0 1 2-81l-1-9c0-12-2-20-11-39-9-16-15-31-15-34 0-2-7-20-7-17zm-36 33c-1 1-1 1 0 0l1-2-1 2zM0 608c0 4 0 4 2 3 2-3 1-7 0-7-2 0-2 1-2 4zm772 10-1 3 2-3c1-3 0-3-1 0zm109 3 1 3v-6l-1 3zm-112 4c-1 3-1 4 1 1l1-4-2 3zm112 19c0 16 1 20 2 17l15-5a422 422 0 0 0-15 2l-1-16-1-16v18zm-115-11c-3 6-2 7 0 1l2-5-2 4zm-732 0 1 1 1-1-1-1-1 1zm-27 4c-6 0-7 0-7 2l13 1h15c2 2 1 2-2 6a568 568 0 0 1-26 24h3l4-4c12-10 25-23 25-24l-3-4c-4-2-4-2-22-1zm756 5-1 3 1-3 1-3-1 3zm-5 14-4 14c1-1 8-23 7-24l-3 10zm115 7-2 1 5-2 2-1-5 2zm9 5c0 14 5 30 14 47l15 23c3 3 8 9 12 17l4 6-2-5-4-7-10-14c-4-4-14-19-19-30-5-10-8-21-9-35-1-7-1-7-1-2zm-18-2h2l2-2-4 2zm-7 2v1l2-1 1-1-3 1zm-104 4-1 3h1l1-3h-1zm109 44 9 10-4-6-5-4zm-4 2v1l1-1v-1l-1 1zm-1 13 1 16v-10c0-19-1-22-1-6zm17-2 2 3a181 181 0 0 1 14 21c1-1-12-21-16-24l-3-3 3 3zM26 749h1l1-1-1-1-1 2zm813 11 1 14v-8c0-15-1-19-1-6zm20-7 3 10c1 6 4 11 10 20a417 417 0 0 1 11 16c1-1 17 16 24 25 5 7 11 18 12 23l-5-4c-9-8-9-7-1 1l10 13c2 4 3 6 4 5l-2-4-4-9c-4-15-12-26-33-48l-19-23-9-23-1-2zm31 2a175 175 0 0 0 11 20c3 7 26 37 26 33l-4-5a230 230 0 0 1-33-49zm-49 27c0 1 0 2 1 1v-2c-1-1-1 0-1 1zm-7 10v20a200 200 0 0 0 0-20zm29-5 4 5-2-3-4-6 2 4zm-21 0c0 4 4 15 11 26a90 90 0 0 0 8 13l5 7 4 8c0 2 0 3 1 2 0-3 1-2 4 2l6 8 13 15a1169 1169 0 0 0 28 36l5 8v-1c-8-14-15-24-24-33l-10-12-20-26v-5l1-4-1 3-2 3c-1 0-9-11-16-23-6-9-9-15-10-21l-3-6zm-701 4h1v-2l-1 2zm680 11 7 7a447 447 0 0 0 27 51c3 4 3 5 3 12v7l4 7 5 7-3-6c-3-6-5-14-3-15 1-1 6 9 6 11 0 3 6 10 10 14l5 5 2 4c3 4 2 5-1 1a238 238 0 0 1 13 25c6 13 10 20 13 22l6 9 12 17-8-14-17-28h3c1 1 6 2 8 1v-6c-4-13-12-24-24-29l5 3c6 4 10 9 13 15 4 6 6 15 4 16-1 1-12-3-13-6a535 535 0 0 0-29-52c-2-4-3-5-2-11 0-4 0-6-1-3l-1 6v3l-1-3-2-5-1-2c-1-1 2-13 3-15l4 2 2 1-1-2c-2-3-7-4-7-1l-3 12-11-18c-7-13-10-19-10-22l-1-2 2 2c5 4 3 1-1-3l-7-8c-3-5-8-10-11-10l1 1zm53 87c4 5 4 7 0 4l-6-11 6 7zm5-77-1 4 1-4 1-4-1 4z"/><path d="m835 814 1 1c1 1 1 0 0 0 0-2-1-2-1-1zm42 4v2c1 2 2 1 1-1 0-2-1-2-1-1zm-123 5 1 3v-6l-1 3zm129 0 7 3-3-2-4-2zm-7 1-1 2 1-2c1-1 0-2-1 0zm-32 2 3 2 8 5 8 4-8-5-10-7-2-1 1 2zm-823 0c-1 1-1 2 1 2l1-1-2-1zm39 2 1 1 1-1-1-1-1 1zm814 1h1v-2l-1 2zm19-1a111 111 0 0 0 11 7 43 43 0 0 0-11-7zm-26 29c0 2 0 3 1 2v-4c-1-1-1 0-1 2zm-661 6c0 3-1 6-8 20-9 18-10 23-9 33 1 5 2 7 6 11 3 3 6 5 10 6l6 4 2 2 15-13 14-13 3-9c3-10 4-13 8-17 3-3 6-4 7-3 3 0 2 2 0 6-3 4-5 12-4 14 1 0 2-2 2-5l4-7c4-5 4-8 2-10-7-6-18 4-22 20-2 7-5 11-16 22s-13 11-14 3c-1-7-3-12-5-12v4c2 5 3 12 2 12-2 2-10-4-14-8-7-10-5-21 7-42l5-9c3-5 3-5 6 8l2 10v-13l-1-5-1-4c-1-4-4-9-6-9l-1 4zm-188 3 1 2 1-2c0-1-1-2-2 0zm39 1 1 1 1-1-1-1-1 1zm787 1c0 4-2 9-3 10l-2 4c0 7 0 8-2 9-2 0-8-3-8-5l5-3 4-3-3 1c-4 3-6 2-6-1 0-2 0-2-1 1-1 4-4 5-6 2-1-2-4-3-4-1l7 6c2 1 2 1 2 11l-1 10 1-8 2-9 4 4 3 4v40l-2-4c-3-5-5-11-6-20l-1-6 1 7c0 10 1 13 6 21s6 11 5 14c-2 2-14 0-18-4l-3-1 8 6 8 1c4 0 4 0 4 2 0 5-1 7-7 10a215 215 0 0 0-60 50l11-9a221 221 0 0 1 54-42l1 13 2 21 1 11c-1 3-1 3 1 3 2-1 3 0 4 2 3 6 6 10 17 20 16 14 25 22 29 29 8 12 17 33 24 52a289 289 0 0 0 6 15 534 534 0 0 0-28-66c-5-8-13-16-30-31-12-11-18-19-18-22 0-1 2-3 5-4l7-5 1-1-15 7v-16l2-19 1-13v-1h-1 6l19 2c21-1 27 0 31 4 2 1 2 1 1-1a406 406 0 0 0-55-12c-1 2-1 2-1-8l1-12a583 583 0 0 1 3-19l14 12 19 17 18 14 9 7h-4l-3-1 5 3 11 8 3 3-10-10-1-2c0-2-3-5-15-14-11-7-40-34-45-40l-1-6c1-3 0-6-2-6v1c1 2 2 8 0 8l-5-4c-3-3-4-5-4-7 0-3 0-3 7-1l5 3h1l2-1h2l-1-1-2-2h-1l-6-1-6-2c-1-1 1-11 3-17l2-7c-1-2-1-2-1 0zm-8 25c2 1 3 4 1 4l-4-4h3zm8 13 4 5-4 13-3 17c0 3-2 3-2-1-2-10-2-38 0-38l5 4zm2 28c-2 12-3 14-4 12-1-1 1-12 4-23 2-10 3-4 0 11zm-2 17c0 2-1 3-2 0v-3l2 3zm-1 7v3l-2 1c-2 0-3-2-1-5 1-3 3-2 3 1zm9-2 2 1c1-1 24 1 25 2 1 2-8 2-15 1l-11-1c-3 0-7-2-6-3h5zm-9 8c2 4 0 35-2 34-2 0-3-8-3-22 0-10 0-12 2-13s3-1 3 1zM97 868l-1 2c1 1 2-1 2-2h-1z"/><path d="m829 872 1 3v-6l-1 3zm-694-2 1 1 2-1-1-1-2 1zm40 1 1 1c1-1 1-2-1-2v1zm79 2 1 1v-1l-1-1v1zm602 10-1 2 1-1 1-3-1 1zm-66 1c-1 2-1 3 2 6 7 7 10 8 22 9 9 1 6-1-3-2-8-1-10-2-17-8-2-2-3-3-2-4 0-2 0-2-2-1zm64 5h1v-2l-1 2zM54 907l1 1 1-1-1-1-1 1zm40 2h1l1-1-1-1-1 2zm79 2v1l1-1v-1l-2 1zm40 1 1 1v-1l-1-1v1zm39 1 1 1v-1l-1-1v1zm350 31 1 1h1l-1-1h-1zm-27 2-1 2c0 1 1 2 3 1 2 0 3 1 8 5a150 150 0 0 1 19 24c3 3 4 6 2 6s-2 3 0 3c2 1 4-1 4-3l-5-10a39 39 0 0 1-8-10l-7-8c-6-7-12-11-13-11l-2 1zm-523 1 1 1 1-1-1-1-1 1zm40 1v1l2-1-1-1-2 1zm39 2h1l1-1h-1l-1 1zm40 1v1l1-1v-1l-2 1zm39 1 1 1 1-1-1-1-1 1zm39 1 1 1 1-1-1-1-1 1zm40 1 1 1 1-1-1-1-1 1zm40 1 1 1v-1l-1-1-1 1z"/><path d="m579 966 3 8 3 15c1 16 2 26 4 29a310 310 0 0 1 10 16l6 9c2 4 4 6 4 4 0-3-3-8-7-13l-12-20-2-17c-1-15-2-18-4-24l-1-6 4 1h3l-11-4v2zM49 988l1 1 1-1-1-1-1 1zm40 1 1 1 1-1-1-1-1 1zm820 2c0 9 9 29 15 34l3 1-2-2c-5-4-13-21-15-32-1-4-1-4-1-1zm-701 2h1l1-1h-1l-1 1zm40 0-1 2c1 1 2-1 2-2h-1zm39 2 1 1 1-1-1-1-1 1zm39 1h1l1-1h-1l-1 1zm40 1h1l1-1h-1l-1 1zm40 1h1l1-1h-1l-1 1zM7 1026c-2 1-1 3 1 3l1-2c0-2-1-3-2-1zm39 3c0 1 2 1 3-1l-1-1-2 2zm40 1h1l1-1c-1-1-2-1-2 1zm732 2c-2 4-1 6 3 9 3 2 6 3 12 3l12 2c3 2 8 9 8 12l-5 2-7 1-5 1-6 1c-1 1 0 1 3 1l6 2c2 2 5 1 4-2 0-1 1-2 3-2l6-2c3 0 3 0 3 3 0 4 2 4 2 0 1-3 1-3 5-3 8 0 12 2 23 14 6 7 11 10 12 10 2 0 2 0-2-3l-12-11c-9-9-14-12-22-12-5 0-6 0-7-3-2-4-7-10-10-11l-11-2c-7-1-9-1-12-3-2-2-2-3-2-6 1-5 1-5-1-1zm-691-1 1 1v-1l-1-1v1zm39 1h1l1-1h-1l-1 1zm119 4h1l1-1h-1l-1 1zM3 1068l2 2 1-2c-1-2-3-3-3 0zm40 2 2 1 1-1-1-2-2 2zm41 0c-1 1 0 2 1 1v-2l-1 1zm81 2-1 2c1 1 2-1 2-2h-1zm38 2 2 1 1-1-1-1-2 1zm41 1v1h1v-1h-1zm79 3 1 1 1-1-1-1-1 1zM0 1110c0 2 1 3 3 1s1-3-1-3l-2 2zm40 1 2 1 1-1-2-1-2 1zm122 2v2l1-1c0-2-1-3-1-1zM0 1151l1 2v-3c0-3-1-2-1 1zm118 4 1 1 1-1-1-1-1 1zm41 0c-1 1-1 2 1 2l1-1-2-1zm41 1-1 2c1 1 2-1 2-2h-1zm39 3c0 1 2 1 3-1l-1-1-2 2zm-165 37 2 2 1-1-2-2-1 1zm41 1c1 2 3 2 3 1l-2-2-1 1zm41 1 1 2 1-1-1-2-1 1zm41 1 1 1v-1l-1-1v1zm41 1v1l1-1v-1l-2 1zm39 1 1 1 2-1-1-1-2 1zm41 2h1l1-1c-1-1-2-1-2 1zm40 1 1 1 1-1-1-1-1 1zm-346 18v2c2 1 4 0 4-1-1-2-4-2-5-1zm-5 4c1 2 2 2 3 0l-1-2-2 2zm21 1h1v-2l-1 2zm167 15h1v-2l-1 2zm40 1 2 1 1-1-1-1-2 1zm41 1v1l2-1-1-1-1 1zm40 1 1 1 1-1-1-1-1 1zm81 3 1 1 1-1-1-1-1 1zm41 2h1v-2l-1 2zm-136 10z"/></svg>