<svg xmlns="http://www.w3.org/2000/svg" xml:space="preserve" viewBox="0 0 297.5 297.5">
    <path d="M277.71 158.52v85.7H19.79v-85.7h6.53v40.54c0 16.98 13.81 30.78 30.78 30.78s30.78-13.8 30.78-30.78v-40.54h30.09v40.54c0 16.98 13.81 30.78 30.78 30.78 16.98 0 30.78-13.8 30.78-30.78v-40.54h30.1v40.54c0 16.98 13.8 30.78 30.78 30.78 16.97 0 30.78-13.8 30.78-30.78v-40.54z" style="fill:#acbfc7"/>
    <path d="M218.66 53.28h43.49v10.53h-43.49zM229.17 83.35h22.48v23.92h-22.48zM137.51 83.35h22.48v23.92h-22.48zM127.01 53.28h43.49v10.53h-43.49zM35.35 53.28h43.49v10.53H35.35zM45.86 83.35h22.48v23.92H45.86z" style="fill:#cdd9dd"/>
    <path d="M251.65 126.81v72.25c0 6.2-5.05 11.24-11.24 11.24-6.2 0-11.24-5.04-11.24-11.24v-72.25z" style="fill:#ff4855"/>
    <path d="M68.34 126.81v72.25c0 6.2-5.04 11.24-11.24 11.24s-11.24-5.04-11.24-11.24v-72.25z" style="fill:#d61616"/>
    <path d="M159.99 126.81v72.25c0 6.2-5.04 11.24-11.24 11.24s-11.24-5.04-11.24-11.24v-72.25z" style="fill:#ffd63f"/>
    <path d="M297.25 148.75v105.24c0 5.4-4.37 9.77-9.77 9.77H10.02c-5.39 0-9.77-4.37-9.77-9.77V148.75c0-5.4 4.38-9.77 9.77-9.77h16.3V83.35h-.74c-5.39 0-9.77-4.38-9.77-9.77V43.51c0-5.4 4.38-9.77 9.77-9.77h63.03c5.4 0 9.77 4.37 9.77 9.77v30.07c0 5.39-4.37 9.77-9.77 9.77h-.73v55.63h30.09V83.35h-.73c-5.4 0-9.77-4.38-9.77-9.77V43.51c0-5.4 4.37-9.77 9.77-9.77h63.03c5.39 0 9.77 4.37 9.77 9.77v30.07c0 5.39-4.38 9.77-9.77 9.77h-.74v55.63h30.1V83.35h-.74c-5.39 0-9.77-4.38-9.77-9.77V43.51c0-5.4 4.38-9.77 9.77-9.77h63.03c5.4 0 9.77 4.37 9.77 9.77v30.07c0 5.39-4.37 9.77-9.77 9.77h-.73v55.63h16.29c5.4 0 9.77 4.37 9.77 9.77m-19.54 95.47v-85.7h-6.52v40.54c0 16.98-13.81 30.78-30.78 30.78-16.98 0-30.78-13.8-30.78-30.78v-40.54h-30.1v40.54c0 16.98-13.8 30.78-30.78 30.78-16.97 0-30.78-13.8-30.78-30.78v-40.54H87.88v40.54c0 16.98-13.81 30.78-30.78 30.78s-30.78-13.8-30.78-30.78v-40.54h-6.53v85.7zM262.15 63.81V53.28h-43.49v10.53zm-10.5 135.25v-72.25h-22.48v72.25c0 6.2 5.04 11.24 11.24 11.24 6.19 0 11.24-5.04 11.24-11.24m0-91.79V83.35h-22.48v23.92zM170.5 63.81V53.28h-43.49v10.53zm-10.51 135.25v-72.25h-22.48v72.25c0 6.2 5.04 11.24 11.24 11.24s11.24-5.04 11.24-11.24m0-91.79V83.35h-22.48v23.92zM78.84 63.81V53.28H35.35v10.53zm-10.5 135.25v-72.25H45.86v72.25c0 6.2 5.04 11.24 11.24 11.24s11.24-5.04 11.24-11.24m0-91.79V83.35H45.86v23.92z"/>
</svg>